<?xml version="1.0" encoding="utf-8"?>
<!-- Generator: Adobe Illustrator 22.0.1, SVG Export Plug-In . SVG Version: 6.00 Build 0)  -->
<svg version="1.1" id="Layer_1" xmlns="http://www.w3.org/2000/svg" xmlns:xlink="http://www.w3.org/1999/xlink" x="0px" y="0px"
	 width="512px" height="512px" viewBox="0 0 512 512" style="enable-background:new 0 0 512 512;" xml:space="preserve">
<style type="text/css">
	.st0{fill:#599BA7;}
</style>
<path class="st0" d="M427.5,289.8c39.1,18.4,84.5-10.3,84.5-53.7c0-32.7-26.6-59.3-59.3-59.3c-43.7,0-72.3,45.8-53.6,84.9L346,314.7
	H276v-62.9l84.1-84.1c39.2,18.6,84.7-10.1,84.7-53.6c0-32.7-26.6-59.3-59.3-59.3c-43.5,0-72.2,45.5-53.6,84.7L276,195.3v-80.1
	c22.9-8.2,39.3-30.2,39.3-55.8c0-32.7-26.6-59.3-59.3-59.3c-32.7,0-59.3,26.6-59.3,59.3c0,25.7,16.5,47.7,39.4,55.9v80l-55.8-55.8
	c18.6-39.2-10.1-84.7-53.6-84.7c-32.7,0-59.3,26.6-59.3,59.3c0,43.5,45.5,72.2,84.7,53.6l84.1,84.1v62.9h-70l-53.1-53.1
	c18.7-39.1-9.9-84.9-53.5-84.9C26.6,176.7,0,203.4,0,236.1c0,43.4,45.4,72.1,84.5,53.7l44.9,44.9l-18.3,18.3
	c-39.1-18.6-84.7,10.1-84.7,53.6c0,32.7,26.6,59.3,59.3,59.3c43.5,0,72.2-45.5,53.6-84.7l26.5-26.5h70V472h-58.7c-11,0-20,9-20,20
	s9,20,20,20h157.3c11,0,20-9,20-20s-9-20-20-20H276V354.7H346l26.5,26.5c-18.6,39.1,10.1,84.7,53.6,84.7c32.7,0,59.3-26.6,59.3-59.3
	c0-43.5-45.5-72.2-84.7-53.6l-18.3-18.3L427.5,289.8z M40,236.1c0-10.7,8.7-19.3,19.3-19.3s19.3,8.7,19.3,19.3s-8.7,19.3-19.3,19.3
	S40,246.7,40,236.1z M85.8,425.9c-10.7,0-19.3-8.7-19.3-19.3s8.7-19.3,19.3-19.3s19.3,8.7,19.3,19.3S96.4,425.9,85.8,425.9z
	 M385.4,94.8c10.7,0,19.3,8.7,19.3,19.3s-8.7,19.3-19.3,19.3s-19.3-8.7-19.3-19.3S374.8,94.8,385.4,94.8z M255.9,40
	c10.7,0,19.3,8.7,19.3,19.3s-8.7,19.3-19.3,19.3s-19.3-8.7-19.3-19.3S245.3,40,255.9,40z M107.2,114.1c0-10.7,8.7-19.3,19.3-19.3
	s19.3,8.7,19.3,19.3s-8.7,19.3-19.3,19.3S107.2,124.8,107.2,114.1z M452.6,216.7c10.7,0,19.3,8.7,19.3,19.3s-8.7,19.3-19.3,19.3
	s-19.3-8.7-19.3-19.3S442,216.7,452.6,216.7z M445.5,406.6c0,10.7-8.7,19.3-19.3,19.3s-19.3-8.7-19.3-19.3s8.7-19.3,19.3-19.3
	S445.5,395.9,445.5,406.6z"/>
</svg>
