<?xml version="1.0" encoding="utf-8"?>
<!-- Generator: Adobe Illustrator 22.0.1, SVG Export Plug-In . SVG Version: 6.00 Build 0)  -->
<svg version="1.1" id="Capa_1" xmlns="http://www.w3.org/2000/svg" xmlns:xlink="http://www.w3.org/1999/xlink" x="0px" y="0px"
	 width="208.1px" height="208.1px" viewBox="0 0 208.1 208.1" style="enable-background:new 0 0 208.1 208.1;" xml:space="preserve"
	>
<style type="text/css">
	.st0{fill:#599BA7;}
</style>
<g>
	<circle class="st0" cx="69.7" cy="106.4" r="11.6"/>
	<path class="st0" d="M81.7,131.7c-5.1,0.3-9,4.7-8.7,9.8c0.3,5.1,4.7,9,9.8,8.7c5.1-0.3,9-4.7,8.7-9.8
		C91.2,135.3,86.8,131.4,81.7,131.7z"/>
	<path class="st0" d="M93.7,65.4c-0.5-7.6-7-13.5-14.7-13c-7.6,0.5-13.5,7-13,14.7c0.5,7.6,7,13.5,14.7,13
		C88.3,79.6,94.2,73,93.7,65.4z"/>
	<path class="st0" d="M149.9,92.2c-6.7,0-13.1,1.1-19,3.2c1.5-4.2,2.5-8.6,3-13h16.1c4.1,0,7.5-3.4,7.5-7.5c0.1-4.3-3.3-7.7-7.4-7.7
		h-16.8c-0.1-0.8-0.3-1.6-0.5-2.4c-2-8.7-6-16.5-11.7-23l11.2-11.2c2.9-2.9,2.9-7.7,0-10.6c-2.9-2.9-7.7-2.9-10.6,0L109.8,32
		c-0.3-0.2-0.6-0.4-0.9-0.6c-7.3-4.5-15.5-7.3-23.9-8v-16C85,3.4,81.6,0,77.5,0C73.4,0,70,3.4,70,7.5v16.8
		c-8.2,1.6-15.8,5.1-22.2,10.1L36.3,22.8c-2.9-2.9-7.7-2.9-10.6,0c-2.9,2.9-2.9,7.7,0,10.6l11.7,11.7c-0.8,1.1-1.6,2.3-2.4,3.5
		c-3.7,6-6.7,12.3-8.9,18.7H8.3c-4.1,0-7.5,3.4-7.5,7.5c0,4.1,3.4,7.5,7.5,7.5h14.1c-1.9,11.5-1.5,23.3,1.1,35.1c0.2,1,0.5,2,0.7,3
		H11c-4.1,0-7.5,3.4-7.5,7.5c0,4.1,3.4,7.5,7.5,7.5h18.2c3,6.8,6.7,13.3,11,19.3l-11.9,11.9c-2.9,2.9-2.9,7.7,0,10.6
		c1.5,1.5,3.4,2.2,5.3,2.2c1.9,0,3.8-0.7,5.3-2.2l10.9-10.9c6.5,6.7,13.4,11.9,20.3,15.4v18.5c0,4.1,3.4,7.5,7.5,7.5
		c4.1,0,7.5-3.4,7.5-7.5v-13.6c2.2,0.4,4.5,0.6,6.7,0.6c4.2,0,8.3-0.6,12.1-1.8c10.6,13.8,27.3,22.8,46,22.8
		c31.9,0,57.9-26,57.9-57.9S181.9,92.2,149.9,92.2z M91.8,172.2c-11.1,0-23.1-6.8-33.9-19.1c-9.8-11.2-16.9-25-19.9-38.9
		c-4.5-20-1-40.5,9.7-57.5c7.1-11.4,19.4-18.2,32.9-18.2c7.3,0,14.3,2,20.4,5.9c8.8,5.5,14.9,14.1,17.3,24.1
		c2.3,10.1,0.6,20.4-4.9,29.2c-2.3,3.7-3.9,7.8-4.8,12.1C98.3,120.1,92,134.4,92,150.2c0,7.7,1.5,15,4.2,21.7
		C94.8,172.1,93.3,172.2,91.8,172.2z M149.9,191.1c-22.6,0-41-18.4-41-41c0-22.6,18.4-41,41-41c22.6,0,41,18.4,41,41
		C190.9,172.8,172.5,191.1,149.9,191.1z"/>
	<path class="st0" d="M174.6,125.5c-3.3-3.3-8.7-3.3-12,0l-12.7,12.7l-12.7-12.7c-3.3-3.3-8.7-3.3-12,0c-3.3,3.3-3.3,8.7,0,12
		l12.7,12.7l-12.7,12.7c-3.3,3.3-3.3,8.7,0,12c1.7,1.7,3.8,2.5,6,2.5c2.2,0,4.3-0.8,6-2.5l12.7-12.7l12.7,12.7
		c1.7,1.7,3.8,2.5,6,2.5c2.2,0,4.3-0.8,6-2.5c3.3-3.3,3.3-8.7,0-12l-12.7-12.7l12.7-12.7C177.9,134.2,177.9,128.8,174.6,125.5z"/>
</g>
</svg>
