<?xml version="1.0" encoding="utf-8"?>
<!-- Generator: Adobe Illustrator 22.0.1, SVG Export Plug-In . SVG Version: 6.00 Build 0)  -->
<svg version="1.1" id="Layer_1" xmlns="http://www.w3.org/2000/svg" xmlns:xlink="http://www.w3.org/1999/xlink" x="0px" y="0px"
	 width="512px" height="512px" viewBox="0 0 512 512" style="enable-background:new 0 0 512 512;" xml:space="preserve">
<style type="text/css">
	.st0{fill:#599BA7;}
</style>
<path class="st0" d="M292.4,256c80.4-56.7,141.8-138.1,141.8-236c0-11.1-9-20-20-20c-11.1,0-20,9-20,20c0,12.8-1.3,25.5-3.9,38.1
	H122.9c-2.6-12.6-3.9-25.3-3.9-38.1c0-11.1-9-20-20-20C88,0,79,9,79,20c0,97.9,61.4,179.3,141.8,236C140.4,312.7,79,394.1,79,492
	c0,11.1,9,20,20,20c11.1,0,20-9,20-20c0-12.8,1.3-25.5,3.9-38.1h267.3c2.6,12.6,3.9,25.3,3.9,38.1c0,11.1,9,20,20,20
	c11.1,0,20-9,20-20C434.1,394.1,372.7,312.7,292.4,256z M377.5,98.2c-5.9,13.7-13.1,26.5-21.2,38.7H156.8
	c-8.2-12.2-15.4-25.1-21.2-38.7H377.5z M189.3,177h134.5c-18.9,19.6-41.4,38-67.2,54.9C230.7,215,208.3,196.6,189.3,177z
	 M256.6,280.1c25.8,17,48.3,35.3,67.2,54.9H189.3C208.3,315.4,230.7,297,256.6,280.1z M135.6,413.8c5.9-13.7,13.1-26.5,21.2-38.7
	h199.5c8.2,12.2,15.4,25.1,21.2,38.7H135.6z"/>
</svg>
