<svg xmlns="http://www.w3.org/2000/svg" width="20" height="15" viewBox="0 0 20 15"><defs><clipPath id="bg0ia"><path fill="#fff" d="M0 15V.005h20.004v14.993zm.968-1.645l5.744-5.852L.968 1.65zM1.614.992l7.291 7.431c.807.822 1.388.822 2.194 0l7.293-7.43zm16.777 13.02L12.649 8.16c-1.13 1.151-1.871 1.94-2.646 1.94-.774 0-1.516-.789-2.645-1.94l-5.743 5.853zm-5.097-6.51l5.742 5.853V1.65z"/></clipPath></defs><g><g><path fill="none" stroke="#fff" stroke-miterlimit="50" stroke-width="2" d="M0 15V.005h20.004v14.993zm.968-1.645l5.744-5.852L.968 1.65zM1.614.992l7.291 7.431c.807.822 1.388.822 2.194 0l7.293-7.43zm16.777 13.02L12.649 8.16c-1.13 1.151-1.871 1.94-2.646 1.94-.774 0-1.516-.789-2.645-1.94l-5.743 5.853zm-5.097-6.51l5.742 5.853V1.65z" clip-path="url(&quot;#bg0ia&quot;)"/></g></g></svg>