<?xml version="1.0" encoding="UTF-8"?>
<svg width="22px" height="22px" viewBox="0 0 22 22" version="1.1" xmlns="http://www.w3.org/2000/svg" xmlns:xlink="http://www.w3.org/1999/xlink">
    <!-- Generator: Sketch 55.1 (78136) - https://sketchapp.com -->
    <title>Group</title>
    <desc>Created with Sketch.</desc>
    <g id="Page-1" stroke="none" stroke-width="1" fill="none" fill-rule="evenodd">
        <g id="Artboard" transform="translate(-1396.000000, -860.000000)">
            <g id="Group" transform="translate(1396.000000, 860.000000)">
                <circle id="Oval" fill="#EDF3F7" cx="11" cy="11" r="11"></circle>
                <path d="M7.81111111,9.52222222 L6.72222222,10.6111111 L10.2222222,14.1111111 L18,6.33333333 L16.9111111,5.24444444 L10.2222222,11.9333333 L7.81111111,9.52222222 Z M16.4444444,16.4444444 L5.55555556,16.4444444 L5.55555556,5.55555556 L13.3333333,5.55555556 L13.3333333,4 L5.55555556,4 C4.7,4 4,4.7 4,5.55555556 L4,16.4444444 C4,17.3 4.7,18 5.55555556,18 L16.4444444,18 C17.3,18 18,17.3 18,16.4444444 L18,10.2222222 L16.4444444,10.2222222 L16.4444444,16.4444444 Z" id="Shape" fill="#599BA7" fill-rule="nonzero"></path>
            </g>
        </g>
    </g>
</svg>