<?xml version="1.0" encoding="utf-8"?>
<!-- Generator: Adobe Illustrator 22.0.1, SVG Export Plug-In . SVG Version: 6.00 Build 0)  -->
<svg version="1.1" id="Layer_1" xmlns="http://www.w3.org/2000/svg" xmlns:xlink="http://www.w3.org/1999/xlink" x="0px" y="0px"
	 width="512px" height="512px" viewBox="0 0 512 512" style="enable-background:new 0 0 512 512;" xml:space="preserve">
<style type="text/css">
	.st0{fill:#599BA7;}
</style>
<g>
	<path class="st0" d="M137.1,512c-9.4,0-17.1-7.6-17.1-17.1V390.4c0-7.2-1.9-14.4-5.4-20.6c-43.3-50.6-68-79.5-82.8-96.8
		c-20.2-23.6-20.2-23.6-20.8-24.6l-0.1-0.2C3.8,236.3,0,222.6,0,208.7V46.9c0-12.5,5.1-24.3,14.3-33.2C23.4,4.9,35.3,0,47.9,0
		C68.1,0,86,13.1,92.4,32.2c4.9-1.7,9.8-2.5,15-2.5c20.2,0,38.2,13.1,44.5,32.2c4.9-1.7,9.8-2.5,15-2.5c25.9,0,46.9,21,46.9,46.9
		v99.5l37.1,37.1c1.9,1.9,3.7,3.9,5.4,5.9c1.7-2.1,3.5-4.1,5.4-5.9l37.1-37.1v-99.5c0-25.9,21-46.9,46.9-46.9c5.2,0,10.1,0.8,15,2.5
		c6.2-19,24.3-32.2,44.5-32.2c5.2,0,10.1,0.8,15,2.5C426,13.2,443.9,0,464.1,0c12.6,0,24.5,4.9,33.6,13.7
		c9.2,8.9,14.2,20.7,14.2,33.1v161.9c0,13.9-3.8,27.6-10.9,39.4l-0.1,0.2c-0.5,1-0.5,1-20.5,24.3c-14.8,17.2-39.5,46.2-83.1,97.1
		c-3.5,6.3-5.4,13.5-5.4,20.6v104.5c0,9.4-7.6,17.1-17.1,17.1H137.1z M357.8,477.7v-87.3c0-13.9,3.8-27.5,10.9-39.4
		c0.5-0.8,1.1-1.6,1.7-2.3l102-119.2c3.5-6.3,5.4-13.5,5.4-20.6V46.9c0-6.7-6.3-12.6-13.6-12.6c-6.9,0-12.6,5.6-12.6,12.6V166l0,0
		c-0.1,12.4-5,24.1-13.7,32.9c0,0-76.1,76.1-80.5,80.5c-3.3,3.3-7.5,5.1-12.1,5.1s-8.8-1.8-12.1-5.1c-3.3-3.3-5.1-7.5-5.1-12.1
		s1.8-8.8,5.1-12.1l50.6-50.7c4.9-5,4.9-12.9,0-17.8c-2.4-2.4-5.6-3.7-8.9-3.7s-6.5,1.3-8.9,3.7c-8.1,8.1-71.1,71.1-80.5,80.5
		c-8,8-12.4,18.6-12.4,29.9v180.7H357.8z M238.9,477.7V297c0-11.3-4.4-21.9-12.4-29.9L146,186.6c-2.4-2.4-5.6-3.7-8.9-3.7
		c-3.4,0-6.5,1.3-8.9,3.7c-4.9,4.9-5,12.9,0,17.8l50.8,50.8c3.3,3.3,5.1,7.5,5.1,12.1s-1.8,8.8-5.1,12.1c-3.3,3.3-7.5,5.1-12.1,5.1
		c-4.6,0-8.8-1.8-12.1-5.1c0,0-76.4-76.4-80.5-80.5c-8.8-8.8-13.7-20.4-13.7-32.8V166V46.9c0-6.9-5.6-12.6-12.6-12.6
		c-7.2,0-13.6,5.8-13.6,12.6v161.9c0,7.2,1.9,14.4,5.4,20.6c43.3,50.6,68,79.5,82.8,96.8c20.2,23.6,20.2,23.6,20.7,24.6l0.1,0.2
		c7.1,11.9,10.9,25.6,10.9,39.4v87.3L238.9,477.7L238.9,477.7z M107.3,64c-6.9,0-12.6,5.6-12.6,12.6v89.2c0,2.3,0.6,4.5,1.7,6.3
		c2.1-3.6,4.6-6.8,7.5-9.8c4.7-4.7,10-8.1,16.1-10.5V76.6C119.9,69.7,114.3,64,107.3,64z M392.1,151.9c6,2.4,11.4,5.8,16.1,10.5
		c3,3,5.5,6.2,7.5,9.8c1.1-1.9,1.7-4.1,1.7-6.3V76.6c0-6.9-5.6-12.6-12.6-12.6c-6.9,0-12.7,5.6-12.7,12.6V151.9z M345.2,93.8
		c-6.9,0-12.6,5.6-12.6,12.6v65.3l9.2-9.2c4.7-4.7,10-8.1,16.1-10.5v-45.6C357.8,99.4,352.1,93.8,345.2,93.8z M154.2,151.9
		c6,2.4,11.4,5.8,16.1,10.5l9.2,9.2v-65.3c0-6.9-5.6-12.6-12.6-12.6c-6.9,0-12.7,5.6-12.7,12.6V151.9z"/>
</g>
</svg>
