<svg xmlns="http://www.w3.org/2000/svg" width="40" height="40" viewBox="0 0 40 40"><defs><clipPath id="5w67a"><path fill="#fff" d="M19 10a8 8 0 0 1 5.658 13.656l5.341 5.342-1 1.001-5.43-5.43A8 8 0 1 1 19 10z"/></clipPath></defs><g><g><path fill="#599ba7" d="M5 0h30a5 5 0 0 1 5 5v30a5 5 0 0 1-5 5H5a5 5 0 0 1-5-5V5a5 5 0 0 1 5-5z"/></g><g><path fill="none" stroke="#fff" stroke-miterlimit="50" stroke-width="2" d="M19 10a8 8 0 0 1 5.658 13.656l5.341 5.342-1 1.001-5.43-5.43A8 8 0 1 1 19 10z" clip-path="url(&quot;#5w67a&quot;)"/></g></g></svg>