<?xml version="1.0" encoding="utf-8"?>
<!-- Generator: Adobe Illustrator 22.0.1, SVG Export Plug-In . SVG Version: 6.00 Build 0)  -->
<svg version="1.1" id="Layer_1" xmlns="http://www.w3.org/2000/svg" xmlns:xlink="http://www.w3.org/1999/xlink" x="0px" y="0px"
	 width="114px" height="114px" viewBox="0 0 114 114" style="enable-background:new 0 0 114 114;" xml:space="preserve">
<style type="text/css">
	.st0{fill:#CACFD6;}
	.st1{fill-rule:evenodd;clip-rule:evenodd;fill:#CACFD6;}
</style>
<g>
	<g>
		<path class="st0" d="M90.3,114H23.7C10.6,114,0,103.4,0,90.3V23.7C0,10.6,10.6,0,23.7,0h66.6C103.4,0,114,10.6,114,23.7v66.6
			C114,103.4,103.4,114,90.3,114z M23.7,2C11.7,2,2,11.7,2,23.7v66.6c0,12,9.7,21.7,21.7,21.7h66.6c12,0,21.7-9.7,21.7-21.7V23.7
			c0-12-9.7-21.7-21.7-21.7H23.7z"/>
	</g>
	<g>
		<g>
			<path class="st1" d="M84.3,45.6c-0.1-2.9-0.6-4.9-1.3-6.7c-0.7-1.8-1.8-3.5-3.2-4.9c-1.4-1.4-3-2.5-4.9-3.2
				c-1.8-0.7-3.7-1.2-6.7-1.3c-2.9-0.1-3.9-0.2-11.3-0.2c-7.5,0-8.4,0-11.3,0.2c-2.9,0.1-4.9,0.6-6.7,1.3c-1.8,0.7-3.5,1.8-4.9,3.2
				c-1.4,1.4-2.5,3-3.2,4.9c-0.7,1.8-1.1,3.8-1.3,6.7c-0.1,3-0.2,3.9-0.2,11.4c0,7.5,0,8.4,0.2,11.4c0.1,2.9,0.6,4.9,1.3,6.7
				c0.7,1.8,1.8,3.5,3.2,4.9c1.4,1.4,3,2.5,4.9,3.2c1.7,0.7,3.7,1.2,6.7,1.3c2.9,0.1,3.9,0.2,11.3,0.2c7.5,0,8.4,0,11.3-0.2
				c2.9-0.1,4.9-0.6,6.7-1.3c3.7-1.4,6.6-4.4,8-8.1c0.7-1.8,1.1-3.8,1.3-6.7c0.1-2.9,0.2-3.9,0.2-11.4
				C84.4,49.5,84.4,48.6,84.3,45.6z M57,71.2c-7.8,0-14.1-6.3-14.1-14.2c0-7.8,6.3-14.2,14.1-14.2c7.8,0,14.1,6.3,14.1,14.2
				C71.1,64.8,64.8,71.2,57,71.2z M73.6,43.6c-1.8,0-3.3-1.5-3.3-3.3c0-1.8,1.5-3.3,3.3-3.3s3.3,1.5,3.3,3.3
				C76.9,42.1,75.5,43.6,73.6,43.6z"/>
		</g>
	</g>
</g>
</svg>
