<?xml version="1.0" encoding="utf-8"?>
<!-- Generator: Adobe Illustrator 22.0.1, SVG Export Plug-In . SVG Version: 6.00 Build 0)  -->
<svg version="1.1" id="logo" xmlns="http://www.w3.org/2000/svg" xmlns:xlink="http://www.w3.org/1999/xlink" x="0px" y="0px"
	 width="305.4px" height="51px" viewBox="0 0 305.4 51" style="enable-background:new 0 0 305.4 51;" xml:space="preserve">
<style type="text/css">
	.st0{fill:#599BA7;}
	.st1{fill:#2D3764;}
</style>
<g>
	<g>
		<g>
			<path class="st0" d="M9.4,9.8H0V3.6c0-1.8,1.4-3.2,3.2-3.2h6.2V9.8z"/>
			<rect x="13.5" y="0.4" class="st0" width="9.4" height="9.4"/>
			<rect x="27" y="0.4" class="st0" width="9.4" height="9.4"/>
			<path class="st0" d="M50,9.8h-9.4V0.4h6.2c1.8,0,3.2,1.4,3.2,3.2V9.8z"/>
			<rect y="13.9" class="st0" width="9.4" height="9.4"/>
			<rect x="13.5" y="13.9" class="st0" width="9.4" height="9.4"/>
			<rect x="27" y="13.9" class="st0" width="9.4" height="9.4"/>
			<rect x="40.6" y="13.9" class="st0" width="9.4" height="9.4"/>
			<rect y="27.5" class="st0" width="9.4" height="9.4"/>
			<rect x="13.5" y="27.5" class="st0" width="9.4" height="9.4"/>
			<rect x="27" y="27.5" class="st0" width="9.4" height="9.4"/>
			<rect x="40.6" y="27.5" class="st0" width="9.4" height="9.4"/>
			<path class="st0" d="M9.4,50.4H3.2C1.4,50.4,0,49,0,47.2V41h9.4V50.4z"/>
			<rect x="13.5" y="41" class="st0" width="9.4" height="9.4"/>
			<rect x="27" y="41" class="st0" width="9.4" height="9.4"/>
		</g>
	</g>
	<path id="Cancerogenesis_reversal_hypothesis" class="st1" d="M70.8,43.6c0.3,0.1,0.6,0.2,0.9,0.4l0.5-1.2
		c-0.8-0.4-1.6-0.6-2.4-0.6c-0.8,0-1.5,0.2-2.2,0.5c-0.6,0.4-1.1,0.9-1.4,1.5c-0.3,0.7-0.5,1.5-0.5,2.3c-0.1,1.2,0.3,2.3,1,3.3
		c0.7,0.8,1.8,1.2,2.9,1.1c0.8,0,1.6-0.1,2.3-0.4v-1.2c-0.4,0.1-0.7,0.2-1.1,0.3c-0.3,0.1-0.7,0.1-1.1,0.1c-0.7,0-1.4-0.3-1.9-0.8
		c-0.9-1.5-0.9-3.3,0-4.7c0.5-0.6,1.2-0.9,1.9-0.9C70.1,43.4,70.5,43.5,70.8,43.6z M80.6,50.9l-3.2-8.6h-1.5l-3.2,8.6h1.5l0.8-2.4
		h3.3l0.9,2.4H80.6L80.6,50.9z M75.4,47.3l0.8-2.2c0.2-0.5,0.3-1,0.5-1.6c0,0.2,0.1,0.4,0.2,0.7s0.2,0.6,0.2,0.7l0.8,2.3H75.4
		L75.4,47.3z M88.8,42.3h-1.3v4.5c0,0.3,0,0.8,0,1.3c0,0.6,0,0.9,0,1h0l-4.2-6.8h-1.7v8.6H83v-4.4c0-0.6,0-1.3-0.1-2l0-0.4h0
		l4.2,6.8h1.7L88.8,42.3L88.8,42.3z M95.8,43.6c0.3,0.1,0.6,0.2,0.9,0.4l0.5-1.2c-0.8-0.4-1.6-0.6-2.4-0.6c-0.8,0-1.5,0.2-2.2,0.5
		c-0.6,0.4-1.1,0.9-1.4,1.5c-0.3,0.7-0.5,1.5-0.5,2.3c-0.1,1.2,0.3,2.3,1,3.3c0.7,0.8,1.8,1.2,2.9,1.1c0.8,0,1.6-0.1,2.3-0.4v-1.2
		c-0.4,0.1-0.7,0.2-1.1,0.3c-0.3,0.1-0.7,0.1-1.1,0.1c-0.7,0-1.4-0.3-1.9-0.8c-0.9-1.5-0.9-3.3,0-4.7c0.5-0.6,1.2-0.9,1.9-0.9
		C95.1,43.4,95.4,43.5,95.8,43.6L95.8,43.6z M103.5,49.7h-3.4V47h3.2v-1.2h-3.2v-2.3h3.4v-1.2h-4.8v8.6h4.8L103.5,49.7L103.5,49.7z
		 M106.8,43.5h0.9c0.5,0,1,0.1,1.4,0.3c0.3,0.2,0.5,0.6,0.5,1c0,0.4-0.1,0.8-0.4,1.1c-0.4,0.3-0.9,0.4-1.4,0.4h-1L106.8,43.5
		L106.8,43.5z M108.2,47.5l2.1,3.4h1.6l-2.4-3.8c1-0.3,1.7-1.2,1.7-2.3c0.1-0.7-0.2-1.4-0.8-1.9c-0.7-0.5-1.6-0.7-2.5-0.6h-2.4v8.6
		h1.4v-3.4L108.2,47.5L108.2,47.5z M119.6,43.4c-0.8-0.8-1.8-1.2-3-1.2c-1.1-0.1-2.2,0.3-3,1.1c-0.8,0.9-1.1,2.1-1,3.3
		c-0.1,1.2,0.3,2.4,1,3.3c1.7,1.5,4.3,1.5,5.9,0C121,47.9,121,45.3,119.6,43.4z M114.8,44.2c0.5-0.6,1.2-0.9,1.9-0.8
		c0.7,0,1.4,0.3,1.9,0.8c0.8,1.5,0.8,3.3,0,4.8c-1,1-2.6,1.1-3.7,0.1c0,0-0.1-0.1-0.1-0.1C113.9,47.5,113.9,45.7,114.8,44.2
		L114.8,44.2z M126,47.5h1.8v2.2c-0.5,0.1-1,0.2-1.5,0.2c-0.8,0.1-1.5-0.2-2.1-0.8c-0.5-0.7-0.8-1.5-0.7-2.4c0-0.9,0.2-1.7,0.8-2.4
		c0.6-0.6,1.4-0.9,2.2-0.9c0.7,0,1.4,0.2,2.1,0.5l0.5-1.2c-0.8-0.3-1.7-0.5-2.5-0.5c-1.2-0.1-2.4,0.4-3.3,1.2
		c-0.8,0.9-1.3,2-1.2,3.2c-0.1,1.2,0.3,2.3,1.1,3.2c0.8,0.8,1.9,1.2,3,1.2c0.5,0,1,0,1.5-0.1c0.5-0.1,1-0.2,1.5-0.4v-4.3H126
		L126,47.5L126,47.5z M136.1,49.7h-3.4V47h3.2v-1.2h-3.2v-2.3h3.4v-1.2h-4.8v8.6h4.8L136.1,49.7L136.1,49.7z M145.1,42.3h-1.3v4.5
		c0,0.3,0,0.8,0,1.3c0,0.6,0,0.9,0,1h0l-4.2-6.8h-1.7v8.6h1.3v-4.5c0-0.6,0-1.3-0.1-2l0-0.4h0l4.2,6.8h1.7L145.1,42.3L145.1,42.3z
		 M152.2,49.7h-3.4V47h3.2v-1.2h-3.2v-2.3h3.4v-1.2h-4.8v8.6h4.8L152.2,49.7L152.2,49.7z M158.8,47.6c-0.2-0.3-0.4-0.6-0.6-0.8
		c-0.4-0.3-0.9-0.5-1.4-0.7c-0.4-0.2-0.8-0.3-1.2-0.6c-0.2-0.1-0.3-0.3-0.5-0.4c-0.1-0.2-0.1-0.4-0.1-0.6c0-0.3,0.1-0.6,0.4-0.8
		c0.3-0.2,0.7-0.3,1-0.3c0.7,0,1.4,0.2,2,0.5l0.4-1.1c-0.8-0.3-1.6-0.5-2.5-0.5c-0.7,0-1.5,0.2-2,0.6c-0.5,0.4-0.8,1-0.8,1.7
		c0,0.5,0.2,1,0.5,1.5c0.5,0.5,1,0.9,1.7,1.1c0.5,0.2,1,0.5,1.5,0.8c0.2,0.2,0.4,0.5,0.4,0.8c0,0.3-0.1,0.6-0.4,0.8
		c-0.4,0.2-0.8,0.4-1.2,0.3c-0.4,0-0.8-0.1-1.2-0.2c-0.4-0.1-0.8-0.2-1.2-0.4v1.3c0.7,0.3,1.6,0.5,2.4,0.5c0.8,0,1.6-0.2,2.3-0.7
		c0.5-0.4,0.9-1.1,0.8-1.8C159,48.2,158.9,47.9,158.8,47.6L158.8,47.6z M162,50.9v-8.6h-1.4v8.6L162,50.9L162,50.9z M169,47.6
		c-0.2-0.3-0.4-0.6-0.6-0.8c-0.4-0.3-0.9-0.5-1.4-0.7c-0.4-0.2-0.8-0.3-1.2-0.6c-0.2-0.1-0.3-0.3-0.5-0.4c-0.1-0.2-0.1-0.4-0.1-0.6
		c0-0.3,0.1-0.6,0.4-0.8c0.3-0.2,0.7-0.3,1-0.3c0.7,0,1.4,0.2,2,0.5l0.4-1.1c-0.8-0.4-1.6-0.5-2.4-0.5c-0.7,0-1.5,0.2-2,0.6
		c-0.5,0.4-0.8,1-0.8,1.7c0,0.5,0.2,1,0.5,1.5c0.5,0.5,1,0.9,1.7,1.1c0.5,0.2,1,0.5,1.5,0.8c0.2,0.2,0.4,0.5,0.4,0.8
		c0,0.3-0.1,0.6-0.4,0.8c-0.4,0.2-0.8,0.4-1.2,0.3c-0.4,0-0.8-0.1-1.2-0.2c-0.4-0.1-0.8-0.2-1.2-0.4v1.3c0.7,0.3,1.6,0.5,2.4,0.5
		c0.8,0,1.6-0.2,2.3-0.7c0.5-0.4,0.9-1.1,0.8-1.8C169.2,48.2,169.2,47.9,169,47.6L169,47.6z M175.4,43.5h0.9c0.5,0,1,0.1,1.4,0.3
		c0.3,0.2,0.5,0.6,0.5,1c0,0.4-0.1,0.8-0.4,1.1c-0.4,0.3-0.9,0.4-1.4,0.4h-1V43.5L175.4,43.5z M176.8,47.5l2.1,3.4h1.6l-2.4-3.8
		c1-0.3,1.7-1.2,1.7-2.3c0.1-0.7-0.2-1.4-0.8-1.9c-0.7-0.5-1.6-0.7-2.5-0.6H174v8.6h1.4v-3.4L176.8,47.5L176.8,47.5z M186.5,49.7
		h-3.4V47h3.2v-1.2h-3.2v-2.3h3.4v-1.2h-4.8v8.6h4.8C186.5,50.9,186.5,49.7,186.5,49.7z M191.5,47.6c-0.1,0.2-0.2,0.5-0.3,0.9
		c-0.1,0.4-0.2,0.7-0.2,1c0-0.2-0.1-0.5-0.2-0.9c-0.1-0.4-0.2-0.7-0.3-1l-1.8-5.3h-1.5l3,8.6h1.5l3-8.6h-1.5L191.5,47.6z
		 M200.7,49.7h-3.4V47h3.2v-1.2h-3.2v-2.3h3.4v-1.2h-4.8v8.6h4.8L200.7,49.7L200.7,49.7z M203.9,43.5h0.9c0.5,0,1,0.1,1.4,0.3
		c0.3,0.2,0.5,0.6,0.5,1c0,0.4-0.1,0.8-0.4,1.1c-0.4,0.3-0.9,0.4-1.4,0.4h-1V43.5z M205.3,47.5l2.1,3.4h1.6l-2.4-3.8
		c1-0.3,1.7-1.2,1.7-2.3c0.1-0.7-0.2-1.4-0.8-1.9c-0.7-0.5-1.6-0.7-2.5-0.6h-2.4v8.6h1.4v-3.4L205.3,47.5L205.3,47.5z M214.9,47.6
		c-0.2-0.3-0.4-0.6-0.6-0.8c-0.4-0.3-0.9-0.5-1.4-0.7c-0.4-0.2-0.8-0.3-1.2-0.6c-0.2-0.1-0.3-0.3-0.5-0.4c-0.1-0.2-0.1-0.4-0.1-0.6
		c0-0.3,0.1-0.6,0.4-0.8c0.3-0.2,0.7-0.3,1-0.3c0.7,0,1.4,0.2,2,0.5l0.4-1.1c-0.8-0.4-1.6-0.5-2.4-0.5c-0.7,0-1.5,0.2-2,0.6
		c-0.5,0.4-0.8,1-0.8,1.7c0,0.5,0.2,1,0.5,1.5c0.5,0.5,1,0.9,1.7,1.1c0.5,0.2,1,0.5,1.5,0.8c0.2,0.2,0.4,0.5,0.4,0.8
		c0,0.3-0.1,0.6-0.4,0.8c-0.4,0.2-0.8,0.4-1.2,0.3c-0.4,0-0.8-0.1-1.2-0.2c-0.4-0.1-0.8-0.2-1.2-0.4v1.3c0.7,0.3,1.6,0.5,2.4,0.5
		c0.8,0,1.6-0.2,2.3-0.7c0.5-0.4,0.9-1.1,0.8-1.8C215.1,48.2,215.1,47.9,214.9,47.6L214.9,47.6z M223.6,50.9l-3.2-8.6h-1.5l-3.2,8.6
		h1.5l0.8-2.4h3.3l0.9,2.4H223.6L223.6,50.9z M218.4,47.3l0.8-2.2c0.2-0.5,0.3-1,0.5-1.6c0,0.2,0.1,0.4,0.2,0.7s0.2,0.6,0.2,0.7
		l0.8,2.3H218.4L218.4,47.3z M229.8,50.9v-1.2h-3.6v-7.4h-1.4v8.6L229.8,50.9L229.8,50.9z M241.1,42.3h-1.4v3.5h-3.9v-3.5h-1.4v8.6
		h1.4V47h3.9v3.9h1.4V42.3L241.1,42.3z M243.8,42.3h-1.5l2.8,5.3v3.3h1.4v-3.3l2.9-5.2h-1.5l-2,3.9L243.8,42.3z M255.3,43
		c-0.7-0.5-1.6-0.7-2.4-0.7h-2.5v8.6h1.4v-3.2h0.9c0.9,0.1,1.8-0.2,2.5-0.7c0.6-0.5,0.9-1.3,0.9-2.1C256.2,44.2,255.9,43.5,255.3,43
		z M251.9,43.5h1c0.5,0,1,0.1,1.4,0.4c0.3,0.3,0.5,0.7,0.5,1.1c0,0.4-0.2,0.9-0.5,1.2c-0.5,0.3-1,0.4-1.6,0.4h-0.7L251.9,43.5
		L251.9,43.5z M264.4,43.4c-0.8-0.8-1.8-1.2-3-1.2c-1.1-0.1-2.2,0.3-3,1.1c-0.8,0.9-1.1,2.1-1,3.3c-0.1,1.2,0.3,2.4,1,3.3
		c1.7,1.5,4.3,1.5,5.9,0C265.8,47.9,265.8,45.3,264.4,43.4L264.4,43.4z M259.5,44.2c0.5-0.6,1.2-0.9,1.9-0.8c0.7,0,1.4,0.3,1.9,0.8
		c0.8,1.5,0.8,3.3,0,4.8c-1,1-2.6,1.1-3.7,0.1c0,0-0.1-0.1-0.1-0.1C258.7,47.5,258.7,45.7,259.5,44.2L259.5,44.2z M270.2,43.5h2.5
		v-1.2h-6.4v1.2h2.5v7.4h1.4L270.2,43.5L270.2,43.5z M280.8,42.3h-1.4v3.5h-3.9v-3.5h-1.4v8.6h1.4V47h3.9v3.9h1.4L280.8,42.3
		L280.8,42.3z M287.9,49.7h-3.4V47h3.2v-1.2h-3.2v-2.3h3.4v-1.2h-4.8v8.6h4.8V49.7L287.9,49.7z M294.5,47.6
		c-0.2-0.3-0.4-0.6-0.6-0.8c-0.4-0.3-0.9-0.5-1.4-0.7c-0.4-0.2-0.8-0.3-1.2-0.6c-0.2-0.1-0.3-0.3-0.5-0.4c-0.1-0.2-0.1-0.4-0.1-0.6
		c0-0.3,0.1-0.6,0.4-0.8c0.3-0.2,0.7-0.3,1-0.3c0.7,0,1.4,0.2,2,0.5l0.4-1.1c-0.8-0.3-1.6-0.5-2.4-0.5c-0.7,0-1.5,0.2-2,0.6
		c-0.5,0.4-0.8,1-0.8,1.7c0,0.5,0.2,1,0.5,1.5c0.5,0.5,1,0.9,1.7,1.1c0.5,0.2,1,0.5,1.5,0.8c0.2,0.2,0.4,0.5,0.4,0.8
		c0,0.3-0.1,0.6-0.4,0.8c-0.4,0.2-0.8,0.4-1.2,0.3c-0.4,0-0.8-0.1-1.2-0.2c-0.4-0.1-0.8-0.2-1.2-0.4v1.3c0.7,0.3,1.6,0.5,2.4,0.5
		c0.8,0,1.6-0.2,2.3-0.7c0.5-0.4,0.9-1.1,0.8-1.8C294.7,48.2,294.7,47.9,294.5,47.6L294.5,47.6z M297.8,50.9v-8.6h-1.4v8.6
		L297.8,50.9L297.8,50.9z M304.8,47.6c-0.2-0.3-0.4-0.6-0.6-0.8c-0.4-0.3-0.9-0.5-1.4-0.7c-0.4-0.2-0.8-0.3-1.2-0.6
		c-0.2-0.1-0.3-0.3-0.5-0.4c-0.1-0.2-0.1-0.4-0.1-0.6c0-0.3,0.1-0.6,0.4-0.8c0.3-0.2,0.7-0.3,1-0.3c0.7,0,1.4,0.2,2,0.5l0.4-1.1
		c-0.8-0.3-1.6-0.5-2.4-0.5c-0.7,0-1.5,0.2-2,0.6c-0.5,0.4-0.8,1-0.8,1.7c0,0.5,0.2,1,0.5,1.5c0.5,0.5,1,0.9,1.7,1.1
		c0.5,0.2,1,0.5,1.5,0.8c0.2,0.2,0.4,0.5,0.4,0.8c0,0.3-0.1,0.6-0.4,0.8c-0.4,0.2-0.8,0.4-1.2,0.3c-0.4,0-0.8-0.1-1.2-0.2
		c-0.4-0.1-0.8-0.2-1.2-0.4v1.3c0.7,0.3,1.6,0.5,2.4,0.5c0.8,0,1.6-0.2,2.3-0.7c0.5-0.4,0.9-1.1,0.8-1.8
		C305,48.2,304.9,47.9,304.8,47.6L304.8,47.6z"/>
	<path id="_15-puzzle" class="st0" d="M78.8,0h-5.6L63,8.2l3.3,4.1l3.7-3c0.4-0.4,1.2-1.1,2.3-2.2l-0.1,3.3l-0.1,3V32h6.8L78.8,0
		L78.8,0z M98.3,11.9L97.5,12l0.6-6.3h11.4V0H92.2L91,16.3l2.7,1.4c0.7-0.2,1.5-0.4,2.3-0.5c0.8-0.1,1.7-0.2,2.6-0.2
		c4.3,0,6.4,1.6,6.4,4.8c0,3.4-2.1,5.1-6.2,5.1c-2.9-0.1-5.8-0.8-8.4-2.1v5.8c2.7,1.3,5.6,1.9,8.6,1.7c4.1,0,7.2-1,9.4-2.9
		s3.3-4.7,3.3-8.2c0.1-2.7-0.9-5.3-2.7-7.1c-2-1.8-4.7-2.7-7.4-2.6C100.5,11.5,99.4,11.6,98.3,11.9L98.3,11.9L98.3,11.9z M129,22.7
		v-5.5h-11.7v5.5C117.3,22.7,129,22.7,129,22.7z M143.4,5.6h3.1c1.5-0.1,2.9,0.3,4.1,1.1c0.9,0.9,1.4,2.2,1.3,3.5
		c0.1,1.4-0.5,2.7-1.6,3.6c-1.4,0.9-3,1.4-4.7,1.2h-2.2L143.4,5.6L143.4,5.6z M155.7,2.5c-2-1.7-5-2.5-8.8-2.5h-10.2v32h6.8V20.6
		h2.9c4,0,7-0.9,9.2-2.7c2.2-1.8,3.2-4.5,3.2-7.9C158.7,6.7,157.7,4.2,155.7,2.5L155.7,2.5z M186.3,0v19.5c0,2.5-0.5,4.3-1.5,5.5
		s-2.6,1.7-4.8,1.7c-2.3,0-3.9-0.6-4.9-1.7c-1-1.2-1.5-3-1.5-5.4V0h-6.8v20.6c-0.2,3.2,1.1,6.4,3.4,8.7c2.3,2.1,5.5,3.2,9.6,3.2
		c2.4,0.1,4.9-0.4,7.1-1.4c1.9-0.9,3.5-2.3,4.6-4.1c1.1-1.9,1.6-4,1.6-6.2V0L186.3,0L186.3,0z M223.9,26.4h-15.7l15.3-22V0h-23v5.6
		h14.9l-15.3,22V32H224L223.9,26.4L223.9,26.4z M252.1,26.4h-15.7l15.3-22V0h-23v5.6h14.9l-15.3,22V32h23.8L252.1,26.4L252.1,26.4z
		 M279.2,32v-5.6h-13V0h-6.8v32L279.2,32L279.2,32z M305.4,26.4h-11.6v-8.3h10.8v-5.6h-10.8v-7h11.6V0H287v32h18.4L305.4,26.4
		L305.4,26.4z"/>
</g>
</svg>
