<?xml version="1.0" encoding="utf-8"?>
<!-- Generator: Adobe Illustrator 22.0.1, SVG Export Plug-In . SVG Version: 6.00 Build 0)  -->
<svg version="1.1" color='red' fill="red" id="Layer_1" xmlns="http://www.w3.org/2000/svg" xmlns:xlink="http://www.w3.org/1999/xlink" x="0px" y="0px"
	 width="512px" height="512px" viewBox="0 0 512 512" style="enable-background:new 0 0 512 512;" xml:space="preserve">
<style type="text/css">
	.st0{fill:#599BA7;}
</style>
<path class="st0" d="M477,338.2c15.2-40.4,18.6-83.3,11.4-124c15.2-22.7,23.2-48.9,23.2-76.5C511.6,61.7,449.9,0,374,0
	c-27.6,0-53.9,8-76.5,23.2c-45.9-8.1-92.6-2.4-134.6,15.7C146.7,15,119.3,0,89.6,0C40.7,0,1,39.7,1,88.6c0,29.7,15,57.1,38.9,73.3
	c-23.5,54.4-26.1,117.6-4.5,175.6C13.5,356.3,1,383.2,1,412.2c0,54.3,44.1,98.4,98.4,98.4c29,0,56-12.5,74.7-34.4
	c52.4,19.6,110.9,19.7,163.5,0.4c18.6,22.2,46.2,35.4,75.7,35.4c54.4,0,98.6-44.2,98.6-98.6C511.9,384.2,498.8,356.7,477,338.2z
	 M374,39.9c53.9,0,97.7,43.8,97.7,97.7c0,53.4-43.1,97.7-97.7,97.7c-53.9,0-97.7-43.8-97.7-97.7C276.3,83,320.6,39.9,374,39.9z
	 M89.6,39.9c14.9,0,28.8,6.9,37.8,18.1C100,75.9,76.8,99.1,58.9,126.5c-11.2-9.1-18.1-22.9-18.1-37.8C40.9,61.7,62.7,39.9,89.6,39.9
	z M99.4,470.7c-32.3,0-58.5-26.3-58.5-58.5c0-32.8,26.6-58.5,58.5-58.5c32.3,0,58.5,26.2,58.5,58.5
	C157.9,444.3,132.1,470.7,99.4,470.7z M193.6,440.9c22.9-75.5-48-145.5-122.8-122.8C27.6,190.6,123.9,56.6,260.6,59.6
	c-15.6,22.6-24.2,49.6-24.2,78.1c0,75.9,61.7,137.6,137.6,137.6c28.4,0,55.4-8.6,78.1-24.2C455,388.2,320.7,484,193.6,440.9z
	 M413.2,472.1c-13.9,0-27.1-4.9-37.5-13.5c34.1-20.1,62.6-48.4,82.9-82.4c8.4,10.4,13.3,23.5,13.3,37.2
	C472,445.8,445.6,472.1,413.2,472.1z"/>
</svg>
