<?xml version="1.0" encoding="utf-8"?>
<!-- Generator: Adobe Illustrator 22.0.1, SVG Export Plug-In . SVG Version: 6.00 Build 0)  -->
<svg version="1.1" id="Layer_1" xmlns="http://www.w3.org/2000/svg" xmlns:xlink="http://www.w3.org/1999/xlink" x="0px" y="0px"
	 width="384px" height="384px" viewBox="0 0 384 384" style="enable-background:new 0 0 384 384;" xml:space="preserve">
<style type="text/css">
	.st0{fill:#599BA7;}
</style>
<path class="st0" d="M17,282.4L1,344c-2.8,10.7,0.1,22,7.8,30c6.1,6.5,14.5,10,23.1,10c2.1,0,4.3-0.2,6.4-0.6l64.2-13
	c3.1-0.6,6-2.2,8.2-4.4l167.4-169.1l14.5,14.5c3.1,3.1,7.2,4.7,11.3,4.7s8.2-1.6,11.3-4.7c6.2-6.3,6.2-16.4,0-22.6l-14.6-14.6
	l65-65.6c24.2-24.6,24.2-64.7,0-89.4C353.6,6.8,337.5,0,320.2,0c0,0,0,0,0,0c-17.3,0-33.5,6.8-45.5,19.1l-64.2,64.8l-15.2-15.2
	c-6.2-6.2-16.4-6.2-22.6,0c-6.2,6.3-6.2,16.4,0,22.6l15.3,15.3L21.1,275.1C19.1,277.1,17.7,279.6,17,282.4z M297.5,41.5
	c6-6.2,14.1-9.5,22.7-9.5s16.7,3.4,22.7,9.5C354.9,53.8,355,73.8,343,86l-64.8,65.5l-45-45L297.5,41.5z M46.9,294.6l163.8-165.3
	l45,45L91.5,339.9L32,352L46.9,294.6z"/>
</svg>
