<?xml version="1.0" encoding="utf-8"?>
<!-- Generator: Adobe Illustrator 22.0.1, SVG Export Plug-In . SVG Version: 6.00 Build 0)  -->
<svg version="1.1" id="Capa_1" xmlns="http://www.w3.org/2000/svg" xmlns:xlink="http://www.w3.org/1999/xlink" x="0px" y="0px"
	 width="188.3px" height="188.3px" viewBox="0 0 188.3 188.3" style="enable-background:new 0 0 188.3 188.3;" xml:space="preserve"
	>
<style type="text/css">
	.st0{fill:#599BA7;}
</style>
<path class="st0" d="M180.5,71.4c-4.1,0.1-7.3,3.7-7.3,7.8v7.4h-12.9c-1.4-12.8-6.5-24.4-14.1-34l9.2-9.2l5.5,5.5
	c1.5,1.5,3.4,2.2,5.3,2.2c1.9,0,3.7-0.7,5.2-2.1c3.1-2.9,2.9-8-0.1-11L150,16.7c-3-3-7.9-2.9-10.8,0.2c-2.8,3-2.5,7.8,0.4,10.7
	l5.2,5.2l-9.2,9.2c-2.9-2.3-5.9-4.3-9.1-6.1c-5-2.8-11.2,0.8-11.2,6.5l0,0c0,2.7,1.5,5.2,3.8,6.5c4.2,2.3,8,5.2,11.3,8.5
	c0.1,0.1,0.1,0.1,0.2,0.2c0.1,0.1,0.1,0.1,0.2,0.2c9.1,9.2,14.8,21.8,14.9,35.7c0,0.2,0,0.4,0,0.6s0,0.4,0,0.6
	c-0.2,13.9-5.8,26.5-14.9,35.7c-0.1,0.1-0.1,0.1-0.2,0.2c-0.1,0.1-0.1,0.1-0.2,0.2c-9.2,9.1-21.8,14.8-35.7,14.9c-0.2,0-0.4,0-0.6,0
	s-0.4,0-0.6,0c-28.1-0.3-50.9-23.2-51.1-51.3c0-0.1,0-0.2,0-0.3s0-0.2,0-0.3c0.2-19.3,11-36.1,26.8-44.8c2.4-1.3,3.8-3.8,3.8-6.5
	l0,0c0-5.7-6.2-9.3-11.2-6.5c-3.2,1.8-6.3,3.9-9.2,6.2L43.4,33l5.2-5.2c2.9-2.9,3.2-7.7,0.4-10.7c-2.9-3.1-7.8-3.1-10.8-0.2L17,38.1
	c-3,3-3.2,8.1-0.1,11c1.4,1.4,3.3,2.1,5.2,2.1s3.8-0.7,5.3-2.2l5.5-5.5l9.2,9.2c-7.6,9.5-12.7,21.2-14.1,34H15v-7.4
	c0-4.1-3.2-7.7-7.3-7.8C3.5,71.3,0,74.7,0,78.9V109c0,4.1,3.2,7.7,7.3,7.8c4.2,0.1,7.7-3.3,7.7-7.5v-7.7h12.9
	c1.4,12.8,6.5,24.4,14.1,34l-9.2,9.2l-5.2-5.2c-2.9-2.9-7.7-3.2-10.7-0.4c-3.1,2.9-3.1,7.8-0.2,10.8l21.5,21.5
	c1.5,1.5,3.4,2.2,5.3,2.2c1.9,0,3.7-0.7,5.2-2.1c3.1-2.9,2.9-8-0.1-11l-5.2-5.2l9.2-9.2c9.5,7.6,21.2,12.7,34,14.1v12.9h-7.4
	c-4.1,0-7.7,3.2-7.8,7.3c-0.1,4.2,3.3,7.7,7.5,7.7H109c4.1,0,7.7-3.2,7.8-7.3c0.1-4.2-3.3-7.7-7.5-7.7h-7.7v-12.9
	c12.8-1.4,24.4-6.5,34-14.1l9.2,9.2l-5.2,5.2c-3,3-3.2,8.1-0.1,11c1.4,1.4,3.3,2.1,5.2,2.1s3.8-0.7,5.3-2.2l21.3-21.3
	c2.9-2.9,3.2-7.7,0.4-10.7c-2.9-3.1-7.8-3.1-10.8-0.2l-5.5,5.5l-9.2-9.2c7.6-9.5,12.7-21.2,14.1-34h12.9v7.4c0,4.1,3.2,7.7,7.3,7.8
	c4.2,0.1,7.7-3.3,7.7-7.5V78.8C188.3,74.7,184.8,71.3,180.5,71.4z"/>
<path class="st0" d="M94.7,94.9L94.7,94.9c-5.4,0-9.8-4.4-9.8-9.8V24.4c0-5.4,4.4-9.8,9.8-9.8l0,0c5.4,0,9.8,4.4,9.8,9.8v60.7
	C104.5,90.5,100.1,94.9,94.7,94.9z"/>
</svg>
