<?xml version="1.0" encoding="utf-8"?>
<!-- Generator: Adobe Illustrator 22.0.1, SVG Export Plug-In . SVG Version: 6.00 Build 0)  -->
<svg version="1.1" id="Layer_1" xmlns="http://www.w3.org/2000/svg" xmlns:xlink="http://www.w3.org/1999/xlink" x="0px" y="0px"
	 width="129px" height="129px" viewBox="0 0 129 129" style="enable-background:new 0 0 129 129;" xml:space="preserve">
<style type="text/css">
	.st0{fill:#599BA7;}
</style>
<g>
	<path class="st0" d="M56.2,128.7c0.6,0.2,1.1,0.3,1.7,0.3c1.4,0,2.9-0.7,3.8-2l47.7-72.3c1-1.3,1.1-3.2,0.3-4.7s-2.3-2.4-4-2.4
		l-29.6-0.2l8.6-42c0.4-2-0.7-4.1-2.6-5C80.3-0.5,78,0,76.7,1.7L26.1,69.8c-1.1,1.3-1.3,3.2-0.6,4.8c0.8,1.6,2.3,2.6,4.1,2.6
		l32.7,0.2l-8.8,46.3C53.1,125.8,54.2,127.9,56.2,128.7z M39,68.2l33.4-46.5l-6.2,29.5c-0.2,1.3,0.1,2.7,1,3.8
		c0.9,1,2.1,1.7,3.4,1.7l26.4,0.1l-31,48.3L72,73.6c0.2-1.3-0.1-2.7-1-3.7c-0.8-1-2-1.6-3.3-1.6C67.7,68.4,39,68.2,39,68.2z"/>
</g>
</svg>
