<?xml version="1.0" encoding="utf-8"?>
<!-- Generator: Adobe Illustrator 22.0.1, SVG Export Plug-In . SVG Version: 6.00 Build 0)  -->
<svg version="1.1" id="Layer_1" xmlns="http://www.w3.org/2000/svg" xmlns:xlink="http://www.w3.org/1999/xlink" x="0px" y="0px"
	 width="512px" height="512px" viewBox="0 0 512 512" style="enable-background:new 0 0 512 512;" xml:space="preserve">
<style type="text/css">
	.st0{fill:#599BA7;}
</style>
<path class="st0" d="M492,0H334.7C302.6,0,274,15.4,256,39.2C238,15.4,209.4,0,177.3,0H20C9,0,0,9,0,20v393.3c0,11,9,20,20,20h157.3
	c32.4,0,58.7,26.3,58.7,58.7c0,11,9,20,20,20s20-9,20-20c0-32.3,26.3-58.7,58.7-58.7H492c11,0,20-9,20-20c0-3.6,0-382.6,0-393.3
	C512,9,503,0,492,0z M334.7,40H472v274.7H334.7c-22,0-42.3,7.2-58.7,19.4V98.7C276,66.3,302.3,40,334.7,40z M40,40h137.3
	c32.4,0,58.7,26.3,58.7,58.7V334c-16.4-12.2-36.7-19.4-58.7-19.4H40V40z M177.3,393.3H40v-38.7h137.3c32.1,0,58.3,26,58.7,58
	C219.6,400.5,199.3,393.3,177.3,393.3z M334.7,393.3c-21.9,0-42.2,7.2-58.7,19.4c0.3-32.1,26.5-58,58.7-58H472v38.7H334.7V393.3z"/>
</svg>
