<?xml version="1.0" encoding="utf-8"?>
<!-- Generator: Adobe Illustrator 22.0.1, SVG Export Plug-In . SVG Version: 6.00 Build 0)  -->
<svg version="1.1" id="Capa_1" xmlns="http://www.w3.org/2000/svg" xmlns:xlink="http://www.w3.org/1999/xlink" x="0px" y="0px"
	 width="206.6px" height="206.6px" viewBox="0 0 206.6 206.6" style="enable-background:new 0 0 206.6 206.6;" xml:space="preserve"
	>
<style type="text/css">
	.st0{fill:#599BA7;}
</style>
<g>
	<path class="st0" d="M184.7,115.8h-5c-0.8-3.7-2.3-7.4-4.4-10.7l3.5-3.5c2.9-2.9,2.9-7.7,0-10.6s-7.7-2.9-10.6,0l-3.5,3.5
		c-3.3-2.1-6.9-3.6-10.7-4.4v-5c0-4.1-3.4-7.5-7.5-7.5S139,81,139,85.1v5c-3.8,0.8-7.4,2.3-10.7,4.4l-3.5-3.5
		c-2.9-2.9-7.7-2.9-10.6,0s-2.9,7.7,0,10.6l3.5,3.5c-4.2,6.6-5.9,14.4-5,21.9c-1.2-0.1-2.5-0.2-3.7-0.2c-6.7,0-12.9,1.9-18.2,5.3
		l-3.5-3.5c-2.9-2.9-7.7-2.9-10.6,0c-2.9,2.9-2.9,7.7,0,10.6l3.5,3.5c-2,3.2-3.6,6.8-4.4,10.7h-5c-4.1,0-7.5,3.4-7.5,7.5
		s3.4,7.5,7.5,7.5h5c0.9,3.8,2.4,7.4,4.4,10.7l-3.5,3.5c-2.9,2.9-2.9,7.7,0,10.6c1.5,1.5,3.4,2.2,5.3,2.2c1.9,0,3.8-0.7,5.3-2.2
		l3.5-3.5c3.2,2,6.8,3.6,10.7,4.4l0,5c0,4.1,3.4,7.5,7.5,7.5h0c4.1,0,7.5-3.4,7.5-7.5l0-5c3.8-0.9,7.4-2.4,10.7-4.4l3.5,3.5
		c1.5,1.5,3.4,2.2,5.3,2.2c1.9,0,3.8-0.7,5.3-2.2c2.9-2.9,2.9-7.7,0-10.6l-3.5-3.5c3.3-5.3,5.3-11.5,5.3-18.2c0-1.3-0.1-2.5-0.2-3.7
		c1.2,0.1,2.5,0.2,3.7,0.2c6.5,0,12.8-1.8,18.2-5.3l3.5,3.5c1.5,1.5,3.4,2.2,5.3,2.2c1.9,0,3.8-0.7,5.3-2.2c2.9-2.9,2.9-7.7,0-10.6
		l-3.5-3.5c2.1-3.3,3.6-6.9,4.4-10.7h5c4.1,0,7.5-3.4,7.5-7.5C192.2,119.2,188.8,115.8,184.7,115.8z M128,160.9
		c0,10.5-8.6,19.1-19.1,19.1c-10.5,0-19.1-8.6-19.1-19.1s8.6-19.1,19.1-19.1C119.4,141.8,128,150.4,128,160.9z M133,136.8
		c-7.4-7.4-7.4-19.5,0-26.9c0,0,0,0,0,0s0,0,0,0c3.6-3.6,8.4-5.6,13.4-5.6c0,0,0,0,0,0s0,0,0,0c5.1,0,9.8,2,13.4,5.6c0,0,0,0,0,0
		c0,0,0,0,0,0c7.4,7.4,7.4,19.5,0,26.9c-3.6,3.6-8.4,5.6-13.5,5.6C141.4,142.4,136.6,140.4,133,136.8z"/>
	<path class="st0" d="M67.6,121.5l0-5c3.8-0.9,7.4-2.4,10.7-4.4l3.5,3.5c1.5,1.5,3.4,2.2,5.3,2.2c1.9,0,3.8-0.7,5.3-2.2
		c2.9-2.9,2.9-7.7,0-10.6l-3.5-3.5c3.3-5.3,5.3-11.5,5.3-18.2c0-1.3-0.1-2.5-0.2-3.7c1.2,0.1,2.5,0.2,3.7,0.2
		c6.5,0,12.8-1.8,18.2-5.3l3.5,3.5c1.5,1.5,3.4,2.2,5.3,2.2c1.9,0,3.8-0.7,5.3-2.2c2.9-2.9,2.9-7.7,0-10.6l-3.5-3.5
		c2.1-3.3,3.6-6.9,4.4-10.7h5c4.1,0,7.5-3.4,7.5-7.5s-3.4-7.5-7.5-7.5h-5c-0.8-3.7-2.3-7.4-4.4-10.7L130,24c2.9-2.9,2.9-7.7,0-10.6
		c-2.9-2.9-7.7-2.9-10.6,0l-3.5,3.5c-3.3-2.1-6.9-3.6-10.7-4.4v-5c0-4.1-3.4-7.5-7.5-7.5s-7.5,3.4-7.5,7.5v5
		c-3.8,0.9-7.4,2.3-10.7,4.4L76,13.4c-2.9-2.9-7.7-2.9-10.6,0c-2.9,2.9-2.9,7.7,0,10.6l3.5,3.5c-4.2,6.6-5.9,14.4-5,21.9
		c-1.2-0.1-2.5-0.2-3.7-0.2c-6.7,0-12.9,1.9-18.2,5.3L38.4,51c-2.9-2.9-7.7-2.9-10.6,0c-2.9,2.9-2.9,7.7,0,10.6l3.5,3.5
		c-2,3.2-3.6,6.8-4.4,10.7h-5c-4.1,0-7.5,3.4-7.5,7.5s3.4,7.5,7.5,7.5h5c0.9,3.8,2.4,7.4,4.4,10.7l-3.5,3.5c-2.9,2.9-2.9,7.7,0,10.6
		c1.5,1.5,3.4,2.2,5.3,2.2s3.8-0.7,5.3-2.2l3.5-3.5c3.2,2,6.8,3.6,10.7,4.4l0,5c0,4.1,3.4,7.5,7.5,7.5h0
		C64.3,129,67.6,125.6,67.6,121.5z M84.2,59.2c-7.4-7.4-7.4-19.5,0-26.9c0,0,0,0,0,0c0,0,0,0,0,0c3.6-3.6,8.4-5.5,13.4-5.6
		c0,0,0,0,0,0s0,0,0,0c5.1,0,9.9,2,13.4,5.6c0,0,0,0,0,0c0,0,0,0,0,0c7.4,7.4,7.4,19.5,0,27c-3.6,3.6-8.4,5.6-13.5,5.6
		C92.6,64.8,87.8,62.8,84.2,59.2z M79.2,83.3c0,10.5-8.6,19.1-19.1,19.1c-10.5,0-19.1-8.6-19.1-19.1s8.6-19.1,19.1-19.1
		C70.7,64.2,79.2,72.8,79.2,83.3z"/>
</g>
</svg>
