<?xml version="1.0" encoding="utf-8"?>
<!-- Generator: Adobe Illustrator 22.0.1, SVG Export Plug-In . SVG Version: 6.00 Build 0)  -->
<svg version="1.1" id="Layer_1" xmlns="http://www.w3.org/2000/svg" xmlns:xlink="http://www.w3.org/1999/xlink" x="0px" y="0px"
	 width="512px" height="512px" viewBox="0 0 512 512" style="enable-background:new 0 0 512 512;" xml:space="preserve">
<style type="text/css">
	.st0{fill:#599BA7;}
</style>
<g>
	<path class="st0" d="M-1.2,446.3l149.8-149.8c-18.3-30.4-28-65.2-28-100.8C120.6,87.7,208.4,0,316.3,0s195.8,87.8,195.8,195.8
		s-87.8,195.8-195.8,195.8c-35.6,0-70.4-9.7-100.8-28L65.8,513.2L-1.2,446.3z M65.8,463.3l17-17l-17-17l-17,17L65.8,463.3z
		 M107.7,421.3l79-79c-6-5.3-11.7-11-17-17l-79,79L107.7,421.3z M316.3,35.2c-88.4,0-160.4,72-160.4,160.4s72,160.4,160.4,160.4
		s160.4-72,160.4-160.4S404.8,35.2,316.3,35.2z"/>
</g>
<g>
	<path class="st0" d="M298.6,332.1v-31.2c-15.9-2.7-31.1-9-44.2-18.4l-22.1,22.1l-24.9-24.9l22.1-22.1
		c-9.4-13.2-15.7-28.4-18.4-44.2h-31.2v-35.3h31.2c2.7-15.9,9-31.1,18.4-44.2l-22.1-22.1l24.9-24.9l22.1,22.1
		c13.2-9.4,28.4-15.7,44.2-18.4V59.4h35.3v31.2c15.9,2.7,31.1,9,44.2,18.4l22.1-22.1l24.9,24.9l-22.1,22.1
		c9.4,13.2,15.7,28.4,18.4,44.2h31.2v35.3h-31.2c-2.7,15.9-9,31.1-18.4,44.2l22.1,22.1l-24.9,24.9l-22.1-22.1
		c-13.2,9.4-28.4,15.7-44.2,18.4v31.2L298.6,332.1L298.6,332.1z M316.3,124.3c-39.4,0-71.4,32.1-71.4,71.4s32.1,71.4,71.4,71.4
		s71.4-32.1,71.4-71.4C387.7,156.3,355.7,124.3,316.3,124.3z"/>
</g>
<g>
	
		<rect x="269" y="148.4" transform="matrix(0.7071 -0.7071 0.7071 0.7071 -33.458 251.3056)" class="st0" width="35.3" height="35.3"/>
</g>
<g>
	
		<rect x="298.6" y="207.7" transform="matrix(0.7071 -0.7071 0.7071 0.7071 -66.7426 289.6717)" class="st0" width="35.3" height="35.3"/>
</g>
<g>
	
		<rect x="328.3" y="148.4" transform="matrix(0.7072 -0.7071 0.7071 0.7072 -16.0739 293.2663)" class="st0" width="35.3" height="35.3"/>
</g>
</svg>
