<?xml version="1.0" encoding="utf-8"?>
<!-- Generator: Adobe Illustrator 22.0.1, SVG Export Plug-In . SVG Version: 6.00 Build 0)  -->
<svg version="1.1" id="Capa_1" xmlns="http://www.w3.org/2000/svg" xmlns:xlink="http://www.w3.org/1999/xlink" x="0px" y="0px"
	 width="165.9px" height="165.9px" viewBox="0 0 165.9 165.9" style="enable-background:new 0 0 165.9 165.9;" xml:space="preserve"
	>
<style type="text/css">
	.st0{fill:#599BA7;}
</style>
<path class="st0" d="M69.6,140.5c-4.7,0-8.6-3.9-8.6-8.6c0-4.7,3.9-8.6,8.6-8.6s8.6,3.9,8.6,8.6C78.2,136.6,74.4,140.5,69.6,140.5z"
	/>
<g>
	<path class="st0" d="M82.9,0C37.2,0,0,37.3,0,83c0,45.7,37.1,82.9,82.9,82.9c45.8,0,82.9-37.3,82.9-83S128.7,0,82.9,0z M132.7,133
		c-13.3,13.3-31,20.6-49.8,20.6c-39,0-70.6-31.6-70.6-70.6S44,12.4,82.9,12.4c39,0,70.6,31.6,70.4,70.8
		C153.3,102,146,119.7,132.7,133z"/>
	<circle class="st0" cx="95" cy="30" r="8.6"/>
	<ellipse transform="matrix(0.9732 -0.2298 0.2298 0.9732 -10.6424 25.5972)" class="st0" cx="104.6" cy="58.5" rx="8.6" ry="8.6"/>
	<ellipse transform="matrix(0.9871 -0.1602 0.1602 0.9871 -17.1851 7.4151)" class="st0" cx="37.4" cy="110.3" rx="8.6" ry="8.6"/>
	<ellipse transform="matrix(0.7071 -0.7071 0.7071 0.7071 3.7593 105.4756)" class="st0" cx="129.2" cy="48.2" rx="8.6" ry="8.6"/>
	<path class="st0" d="M144.3,93.4c-3-2.3-7.6-9.1-8.1-15.3c-0.3-3.6-3.3-6.4-6.9-6.4c0,0,0,0,0,0c-3.5,0-6.5,2.6-6.9,6.1
		c-0.8,2-6.3,6.6-12.2,9.6c-3.4,1.8-4.8,6-3.1,9.4c1.8,3.4,6,4.8,9.4,3.1c0.6-0.3,1.7-0.9,3-1.6c-3.7,9.6-10.7,17.8-20.1,22.8
		c-3.4,1.8-4.7,6.1-2.8,9.5c1.3,2.3,3.7,3.7,6.2,3.7c1.1,0,2.3-0.3,3.3-0.8c12.8-6.9,22.3-18.2,27-31.5c0.9,1,1.9,1.8,2.8,2.5
		c1.3,1,2.8,1.5,4.3,1.5c2.1,0,4.2-0.9,5.5-2.7C147.9,100.1,147.3,95.7,144.3,93.4z"/>
	<path class="st0" d="M59.8,70c-1.2-3.7-5.2-5.7-8.9-4.4c-1.3,0.4-2.8,1-4.3,1.7c3.7-9.4,10.6-17.5,19.9-22.5
		c3.4-1.8,4.7-6.1,2.8-9.5c-1.8-3.4-6.1-4.7-9.5-2.8c-12.9,7-22.5,18.4-27.1,31.8c-0.9-0.9-1.9-1.8-2.8-2.5c-3-2.4-7.4-1.9-9.8,1.1
		c-2.4,3-1.9,7.4,1.1,9.8c3.4,2.7,8.5,8.8,8.5,14.6c0,3.6,2.7,6.6,6.3,7c0.2,0,0.5,0,0.7,0c3.3,0,6.2-2.3,6.9-5.6
		c1.1-5.7,8.6-8.8,11.7-9.8C59.1,77.6,61.1,73.7,59.8,70z"/>
	<path class="st0" d="M80.1,65.4c-12,0-21.8,9.8-21.8,21.8S68.1,109,80.1,109c12,0,21.8-9.8,21.8-21.8S92.1,65.4,80.1,65.4z
		 M80.1,95c-4.3,0-7.8-3.5-7.8-7.8c0-4.3,3.5-7.8,7.8-7.8s7.8,3.5,7.8,7.8C87.9,91.5,84.4,95,80.1,95z"/>
</g>
</svg>
