<?xml version="1.0" encoding="utf-8"?>
<!-- Generator: Adobe Illustrator 22.0.1, SVG Export Plug-In . SVG Version: 6.00 Build 0)  -->
<svg version="1.1" id="Layer_1" xmlns="http://www.w3.org/2000/svg" xmlns:xlink="http://www.w3.org/1999/xlink" x="0px" y="0px"
	 width="512px" height="512px" viewBox="0 0 512 512" style="enable-background:new 0 0 512 512;" xml:space="preserve">
<style type="text/css">
	.st0{fill:#599BA7;}
</style>
<path class="st0" d="M310.8,383.8c-26.1-38.2-83.4-38.3-109.6,0c-46.4,67.8-123.8,67.2-169.3-5.6c-42.5-67.9-42.5-175.7,0-243.7
	c45.5-72.8,123-73.4,169.3-5.6c26.1,38.2,83.4,38.3,109.6,0c46.4-67.8,123.8-67.2,169.3,5.6c42.5,67.9,42.5,175.7,0,243.7
	C434.6,451,357.2,451.6,310.8,383.8z M343.8,361.2c30.6,44.7,72.8,43.1,102.4-4.2c34.3-54.9,34.4-146.2,0-201.3
	c-29.6-47.4-71.9-48.8-102.4-4.2c-42,61.4-133.6,61.6-175.7,0c-30.6-44.7-72.8-43.1-102.4,4.2c-34.3,54.9-34.4,146.2,0,201.3
	c29.6,47.4,71.9,48.8,102.4,4.2C210.1,299.8,301.7,299.6,343.8,361.2z M374,315.7c-32.7,0-59.3-26.6-59.3-59.3
	c0-32.7,26.6-59.3,59.3-59.3s59.3,26.6,59.3,59.3C433.3,289.1,406.7,315.7,374,315.7z M374,237.1c-10.7,0-19.3,8.7-19.3,19.3
	c0,10.7,8.7,19.3,19.3,19.3s19.3-8.7,19.3-19.3C393.3,245.7,384.7,237.1,374,237.1z M133.8,315.7c-32.7,0-59.3-26.6-59.3-59.3
	c0-32.7,26.6-59.3,59.3-59.3s59.3,26.6,59.3,59.3C193.1,289.1,166.5,315.7,133.8,315.7z M133.8,237.1c-10.7,0-19.3,8.7-19.3,19.3
	c0,10.7,8.7,19.3,19.3,19.3s19.3-8.7,19.3-19.3C153.1,245.7,144.4,237.1,133.8,237.1z"/>
</svg>
