<?xml version="1.0" encoding="utf-8"?>
<!-- Generator: Adobe Illustrator 22.0.1, SVG Export Plug-In . SVG Version: 6.00 Build 0)  -->
<svg version="1.1" id="Layer_1" xmlns="http://www.w3.org/2000/svg" xmlns:xlink="http://www.w3.org/1999/xlink" x="0px" y="0px"
	 width="512px" height="512px" viewBox="0 0 512 512" style="enable-background:new 0 0 512 512;" xml:space="preserve">
<style type="text/css">
	.st0{fill:#599BA7;}
</style>
<path class="st0" d="M256,0c-39.3,0-78,9-113,26.3C97.8-10.9,29.5,21.4,29.5,79.8c0,13.5,3.9,26.6,11.1,37.7C14,158.8,0,206.3,0,256
	c0,141.3,114.3,255.9,255.8,256c0,0,0,0,0.1,0h0h0.1c141.5,0,256-114.5,256-256C512,114.5,397.5,0,256,0z M98.9,50.4
	c16.1,0,29.4,13,29.4,29.4c0,16.2-13.2,29.4-29.4,29.4c-15.7,0-29.4-12.7-29.4-29.4C69.5,63.6,82.7,50.4,98.9,50.4z M275.8,471.1
	V353.7c110.6-6.2,180-68.1,149.2-175c-1.9-6.6-7.1-11.8-13.7-13.7c-74.9-21.6-128.3,5.8-155.5,64.4c-27.2-58.6-80.6-85.7-155.1-64.2
	c-6.6,1.9-11.8,7.1-13.7,13.7c-30.8,106.8,38.7,168.3,148.7,174.5v117.6C126.4,461,40,369,40,256c0-40.2,10.9-78.7,31.5-112.5
	c45.8,19.7,96.7-14.2,96.7-63.8c0-6.8-1-13.5-2.9-19.9C193.6,46.8,224.6,40,256,40c119.4,0,216,96.6,216,216
	C472,370,384.5,461.3,275.8,471.1z M276.6,313.6c3.3-47.5,18.3-84.1,42.2-102.1c20.3-15.3,45.8-16.1,70.6-10.7
	c6.3,29.1,2.7,52.8-10.8,70.7C360.4,295.5,323.9,310.4,276.6,313.6z M235.1,313.4c-47.1-3.2-83.5-18.1-101.5-41.9
	c-13.5-17.9-17.1-41.5-10.8-70.5c28.9-6.3,52.5-2.7,70.3,10.7C216.9,229.6,231.8,266.1,235.1,313.4z"/>
</svg>
