<?xml version="1.0" encoding="utf-8"?>
<!-- Generator: Adobe Illustrator 22.0.1, SVG Export Plug-In . SVG Version: 6.00 Build 0)  -->
<svg version="1.1" id="Layer_1" xmlns="http://www.w3.org/2000/svg" xmlns:xlink="http://www.w3.org/1999/xlink" x="0px" y="0px"
	 width="512px" height="512px" viewBox="0 0 512 512" style="enable-background:new 0 0 512 512;" xml:space="preserve">
<style type="text/css">
	.st0{fill:#599BA7;}
</style>
<g>
	<path class="st0" d="M357,511.7v-31.1c-28.4-1.4-56.4-6.3-83.4-14.6l-17.1,42.2l-32.7-13.2l16.7-41c-22.2-9.4-43.5-21.2-63.1-35.1
		L148,448.2l-24.9-24.9l26.4-26.4c-6.2-5.3-12.2-11-17.8-16.6c-13.7-13.7-26.4-28.8-37.6-44.6L56.1,361l-19.6-29.3l38.6-25.8
		C68.9,294.6,63.1,283,58.1,271c-3.6-8.5-6.9-17.3-9.9-26.4l-37.4,12.2l-11.3-33.6l39.2-12.4c-4-18.2-6.4-37-7.4-55.8h-31v-35.3
		h32.1c3.8-22.7,15.1-43.9,32.1-59.9L34.1,29.3L59,4.4l35.5,35.5c13.5-6,28-9.1,43-9.1c17.9,0,35.5,4.5,51.1,13l24.8-37.2l29.3,19.6
		l-26.3,39.5c16.1,17.7,25.8,40.2,27.5,63.9l40.4-10.1l8.5,34.2l-45.6,11.5c6,27.6,20.9,52.6,42.5,71.1l28.3-37.6l28.2,21.1
		l-26.8,35.8c17.4,8.2,36.1,12.4,55.5,12.4c1.1,0,2.2,0,3.4,0.1l9.6-47.9l34.6,6.9l-9.6,47.9c12.4,4.7,23.8,11.8,33.7,20.7
		l39.5-26.4l19.6,29.3l-37.2,24.8c5.7,10.5,9.6,21.6,11.6,33.4H512v35.3h-32.1c-1.5,8.7-4.1,17.2-7.6,25.3l35.5,35.5l-24.9,24.9
		l-30.4-30.4c-16,17-37.2,28.4-60,32.2v32.1L357,511.7L357,511.7z M137.4,66.1c-39.3,0-71.3,32-71.3,71.3
		c0,170,138.3,308.5,308.5,308.5c39.3,0,71.3-32,71.3-71.3s-32-71.3-71.3-71.3c-91.4,0-165.8-74.4-165.8-165.8
		C208.8,98.1,176.8,66.1,137.4,66.1z"/>
</g>
<g>
	<path class="st0" d="M449.7,213.3c-34.2,0-62-27.9-62-62c0-14.8-12.1-26.9-26.9-26.9c-34.2,0-62-27.9-62-62s27.9-62,62-62
		c83.3,0,151,67.8,151,151C511.7,185.5,483.8,213.3,449.7,213.3z M360.7,35.5c-14.8,0-26.9,12.1-26.9,26.9s12.1,26.9,26.9,26.9
		c34.2,0,62,27.9,62,62c0,14.8,12.1,26.9,26.9,26.9s26.9-12.1,26.9-26.9C476.5,87.4,424.6,35.5,360.7,35.5z"/>
</g>
<g>
	<path class="st0" d="M137.4,184.7c-26.1,0-47.2-21.2-47.2-47.2s21.2-47.2,47.2-47.2s47.2,21.2,47.2,47.2S163.5,184.7,137.4,184.7z
		 M137.4,125.4c-6.6,0-12.1,5.4-12.1,12.1s5.4,12.1,12.1,12.1s12.1-5.4,12.1-12.1S144.1,125.4,137.4,125.4z"/>
</g>
<g>
	<path class="st0" d="M374.6,421.8c-26.1,0-47.2-21.2-47.2-47.2c0-26,21.2-47.2,47.2-47.2c26,0,47.2,21.2,47.2,47.2
		C421.8,400.6,400.6,421.8,374.6,421.8z M374.6,362.5c-6.6,0-12.1,5.4-12.1,12.1s5.4,12.1,12.1,12.1s12.1-5.4,12.1-12.1
		S381.2,362.5,374.6,362.5z"/>
</g>
<g>
	
		<rect x="119.9" y="208.7" transform="matrix(0.7071 -0.7071 0.7071 0.7071 -119.7878 163.5245)" class="st0" width="35.3" height="35.3"/>
</g>
<g>
	
		<rect x="179.1" y="297.6" transform="matrix(0.7071 -0.7071 0.7071 0.7071 -165.3033 231.4875)" class="st0" width="35.3" height="35.3"/>
</g>
<g>
	
		<rect x="268.1" y="356.9" transform="matrix(0.7072 -0.7071 0.7071 0.7072 -181.1651 311.7187)" class="st0" width="35.3" height="35.3"/>
</g>
<g>
	
		<rect x="253.3" y="297.6" transform="matrix(0.707 -0.7072 0.7072 0.707 -143.5857 283.9429)" class="st0" width="35.3" height="35.3"/>
</g>
<g>
	
		<rect x="179.1" y="223.5" transform="matrix(0.7071 -0.7071 0.7071 0.7071 -112.9046 209.7839)" class="st0" width="35.3" height="35.3"/>
</g>
</svg>
