<?xml version="1.0" encoding="utf-8"?>
<!-- Generator: Adobe Illustrator 22.0.1, SVG Export Plug-In . SVG Version: 6.00 Build 0)  -->
<svg version="1.1" id="Layer_1" xmlns="http://www.w3.org/2000/svg" xmlns:xlink="http://www.w3.org/1999/xlink" x="0px" y="0px"
	 width="512px" height="512px" viewBox="0 0 512 512" style="enable-background:new 0 0 512 512;" xml:space="preserve">
<style type="text/css">
	.st0{fill:#599BA7;}
</style>
<g>
	<path class="st0" d="M394.4,269.9c0-15.8-3.3-31.5-9.6-46c6.3-11.1,9.6-23.8,9.6-36.7c0-20-7.8-38.8-21.9-52.9
		c-8.6-8.6-19-14.8-30.3-18.4c-0.2-0.1-0.4-0.1-0.5-0.2c-0.3-0.1-0.6-0.2-1-0.3c-6.7-2-13.8-3.1-21.2-3.1
		c-31.2,0-58.7,19.4-69.7,47.7c-21.5,6-41,18.2-55.7,35.3c-17.9,20.7-27.7,47.1-27.7,74.5c0,62.9,51.1,114,114,114
		C343.3,383.9,394.4,332.8,394.4,269.9z M354.3,187.2l0,0.1c0.1,8.1-2.8,15.9-8,22.1l-0.1,0.1c-6.6,7.8-16.2,12.3-26.5,12.4
		c-19.1-0.1-34.7-15.6-34.7-34.8c0-2.2,0.2-4.4,0.6-6.5l0.5-3c4.3-14.7,17.8-25.1,33.5-25.1c0,0,0.1,0,0.1,0c4.3,0,8.4,0.8,12.3,2.2
		C345,159.7,354.3,172.4,354.3,187.2z M280.4,343.9c-40.8,0-74-33.2-74-74c0-28.7,16-53.7,40.3-66c7.6,33.2,37.4,58.1,72.9,58.1
		c11.7,0,23-2.7,33.1-7.7c1.1,5.1,1.7,10.4,1.7,15.6C354.4,310.7,321.2,343.9,280.4,343.9z"/>
	<path class="st0" d="M510,269.9c0.1-61.3-23.8-119-67.2-162.4c-43.4-43.4-101.1-67.3-162.4-67.3c-58.5,0-114.2,22-156.8,61.9
		C84.8,138.3,60,186.3,52.8,238.3c-12,4-22.8,11.1-31.4,20.6C8.9,272.7,2,290.6,2,309.2C2,350.4,35.6,384,76.8,384
		c1.4,0,2.7,0,4-0.1c18.5,32.3,44.6,59.8,76.2,79.9c36.8,23.5,79.4,35.9,123.3,35.9c22.1,0,43.8-3.1,64.7-9.3
		c13.9,13.7,32.6,21.6,52.6,21.6c41.2,0,74.8-33.6,74.8-74.8c0-11-2.4-21.6-6.9-31.4C494.3,366.6,510,318.9,510,269.9z M42,309.2
		c0-17.6,13-32.3,30.3-34.5l1.1-0.1c1-0.1,2.2-0.2,3.3-0.2c19.2,0,34.8,15.6,34.8,34.8c0,0.5,0,1,0,1.4c-0.6,14.8-10.8,27.9-25.3,32
		l-0.1,0c-3,0.9-6.1,1.3-9.4,1.3C57.6,344,42,328.4,42,309.2z M280.3,459.7c-66.3,0-126.3-33.7-160.9-89.1c0.7-0.5,1.4-1,2.1-1.5
		c0.2-0.1,0.4-0.3,0.6-0.5c0.5-0.4,1.1-0.8,1.6-1.2c0.2-0.2,0.4-0.4,0.6-0.5c0.6-0.5,1.2-1,1.8-1.5c0.1-0.1,0.2-0.2,0.3-0.3
		c0.7-0.6,1.3-1.2,2-1.8c0.2-0.2,0.4-0.3,0.5-0.5c0.5-0.5,1-0.9,1.4-1.4c0.2-0.2,0.4-0.4,0.6-0.6c0.5-0.6,1.1-1.1,1.6-1.7
		c0.1-0.1,0.2-0.2,0.2-0.3c0.6-0.7,1.2-1.3,1.7-2c0.2-0.2,0.3-0.4,0.5-0.6c0.4-0.5,0.8-1,1.2-1.6c0.2-0.2,0.3-0.4,0.5-0.6
		c0.5-0.6,0.9-1.3,1.4-1.9c0.1-0.1,0.1-0.2,0.2-0.2c0.5-0.7,1-1.5,1.5-2.2c0.1-0.2,0.3-0.4,0.4-0.6c0.4-0.6,0.7-1.1,1-1.7
		c0.1-0.2,0.3-0.5,0.4-0.7c0.4-0.7,0.8-1.4,1.2-2.1c0-0.1,0.1-0.2,0.1-0.2c0.4-0.8,0.8-1.6,1.2-2.4c0.1-0.2,0.2-0.5,0.3-0.7
		c0.3-0.6,0.6-1.2,0.8-1.8c0.1-0.2,0.2-0.5,0.3-0.7c0.3-0.8,0.6-1.5,0.9-2.3c0-0.1,0.1-0.1,0.1-0.2c0.3-0.8,0.6-1.7,0.9-2.5
		c0.1-0.2,0.2-0.5,0.2-0.7c0.2-0.6,0.4-1.3,0.6-1.9c0.1-0.3,0.2-0.5,0.2-0.8c0.2-0.8,0.5-1.6,0.7-2.5c0,0,0-0.1,0-0.1
		c0.2-0.9,0.4-1.8,0.6-2.6c0.1-0.3,0.1-0.5,0.2-0.8c0.1-0.7,0.3-1.3,0.4-2c0-0.3,0.1-0.5,0.1-0.8c0.1-0.9,0.3-1.8,0.4-2.6
		c0,0,0-0.1,0-0.1c0.1-0.9,0.2-1.8,0.3-2.7c0-0.3,0-0.5,0.1-0.8c0.1-0.7,0.1-1.4,0.1-2.1c0-0.3,0-0.5,0-0.8c0-0.9,0.1-1.9,0.1-2.8
		c0-1.2,0-2.4-0.1-3.6c0-0.4-0.1-0.8-0.1-1.1c-0.1-0.8-0.1-1.6-0.2-2.4c0-0.4-0.1-0.9-0.1-1.3c-0.1-0.8-0.2-1.5-0.3-2.3
		c-0.1-0.4-0.1-0.8-0.2-1.3c-0.1-0.8-0.3-1.5-0.4-2.3c-0.1-0.4-0.1-0.8-0.2-1.1c-0.2-0.9-0.4-1.7-0.6-2.6c-0.1-0.3-0.1-0.5-0.2-0.8
		c-0.6-2.3-1.3-4.6-2.1-6.8c0-0.1-0.1-0.2-0.1-0.3c-0.4-1-0.8-2-1.2-3c-0.1-0.2-0.2-0.4-0.2-0.5c-0.4-0.9-0.8-1.8-1.2-2.7
		c-0.1-0.2-0.2-0.4-0.3-0.5c-0.5-0.9-0.9-1.8-1.4-2.7c-0.1-0.1-0.1-0.2-0.2-0.3c-10.1-18.5-27.8-32.3-48.8-37.1
		c16-89,94.5-156.1,186.8-156.1c50.7,0,98.3,19.7,134.1,55.6c35.8,35.8,55.5,83.5,55.5,134.1c0,37.3-11.1,73.8-31.5,104.7
		c0,0-0.1,0-0.1-0.1c-0.7-0.4-1.4-0.9-2.1-1.3c-0.2-0.1-0.4-0.2-0.6-0.3c-0.5-0.3-1-0.6-1.6-0.9c-0.2-0.1-0.5-0.3-0.7-0.4
		c-0.5-0.3-1-0.5-1.5-0.8c-0.2-0.1-0.5-0.2-0.7-0.4c-0.6-0.3-1.2-0.6-1.8-0.9c-0.1-0.1-0.3-0.1-0.4-0.2c-0.7-0.3-1.5-0.7-2.2-1
		c-0.2-0.1-0.4-0.2-0.6-0.3c-0.6-0.2-1.1-0.5-1.7-0.7c-0.3-0.1-0.5-0.2-0.8-0.3c-0.5-0.2-1.1-0.4-1.6-0.6c-0.2-0.1-0.5-0.2-0.7-0.3
		c-0.7-0.2-1.4-0.4-2-0.7c-0.1,0-0.2-0.1-0.3-0.1c-0.8-0.2-1.6-0.5-2.4-0.7c-0.2-0.1-0.4-0.1-0.7-0.2c-0.6-0.1-1.2-0.3-1.7-0.4
		c-0.3-0.1-0.5-0.1-0.8-0.2c-0.6-0.1-1.1-0.2-1.7-0.3c-0.3,0-0.5-0.1-0.8-0.1c-0.8-0.1-1.5-0.3-2.3-0.4c-0.1,0-0.1,0-0.2,0
		c-0.8-0.1-1.6-0.2-2.5-0.3c-0.2,0-0.5-0.1-0.7-0.1c-0.6-0.1-1.2-0.1-1.8-0.2c-0.3,0-0.6,0-0.9-0.1c-0.6,0-1.2-0.1-1.8-0.1
		c-0.3,0-0.5,0-0.8,0c-0.8,0-1.7,0-2.5,0c-41.2,0-74.8,33.6-74.8,74.8c0,0.8,0,1.7,0,2.5c0,0.3,0,0.5,0,0.8c0,0.6,0.1,1.2,0.1,1.7
		c0,0.3,0,0.6,0.1,0.9c0,0.6,0.1,1.2,0.2,1.7c0,0.2,0,0.5,0.1,0.7c0.2,1.7,0.4,3.3,0.7,4.9c0,0.2,0.1,0.4,0.1,0.6
		c0.1,0.6,0.2,1.2,0.4,1.9c0,0.2,0.1,0.5,0.2,0.7c0.1,0.2,0.1,0.5,0.2,0.7C310.3,457.9,295.4,459.7,280.3,459.7z M397.6,472
		c-11.8,0-22.7-5.9-29.1-15.7c-3.7-5.7-5.7-12.3-5.7-19c0-19.2,15.6-34.8,34.8-34.8c0.7,0,1.4,0,2,0.1c10.2,0.6,19.5,5.6,25.7,13.9
		c4.6,6,7,13.2,7,20.8C432.4,456.4,416.8,472,397.6,472z"/>
</g>
</svg>
