<?xml version="1.0" encoding="utf-8"?>
<!-- Generator: Adobe Illustrator 22.0.1, SVG Export Plug-In . SVG Version: 6.00 Build 0)  -->
<svg version="1.1" id="Layer_1" xmlns="http://www.w3.org/2000/svg" xmlns:xlink="http://www.w3.org/1999/xlink" x="0px" y="0px"
	 width="114px" height="114px" viewBox="0 0 114 114" style="enable-background:new 0 0 114 114;" xml:space="preserve">
<style type="text/css">
	.st0{fill-rule:evenodd;clip-rule:evenodd;fill:#CACFD6;}
	.st1{fill:#CACFD6;}
</style>
<g>
	<g>
		<path class="st0" d="M83,33.4H31c-10,0-10,47.3,0,47.3h52C93,80.6,93,33.4,83,33.4z M48.1,70.5V43.5L71.8,57L48.1,70.5z"/>
	</g>
	<g>
		<path class="st1" d="M90.3,114H23.7C10.6,114,0,103.4,0,90.3V23.7C0,10.6,10.6,0,23.7,0h66.6C103.4,0,114,10.6,114,23.7v66.6
			C114,103.4,103.4,114,90.3,114z M23.7,2C11.7,2,2,11.7,2,23.7v66.6c0,12,9.7,21.7,21.7,21.7h66.6c12,0,21.7-9.7,21.7-21.7V23.7
			c0-12-9.7-21.7-21.7-21.7H23.7z"/>
	</g>
</g>
</svg>
