<svg id="Layer_1" data-name="Layer 1" xmlns="http://www.w3.org/2000/svg" width="34" height="34" viewBox="0 0 34 34">
  <defs>
    <style>
      .cls-1 {
        fill: #fff;
      }
    </style>
  </defs>
  <title>Cancer blood</title>
  <path class="cls-1" d="M28.39,19.25a3.94,3.94,0,1,0-1.89-1.88L23,20.9H18.33V16.72l5.58-5.58A3.94,3.94,0,1,0,22,9.26L18.33,13V7.65a4,4,0,1,0-2.66,0V13L12,9.26a3.94,3.94,0,1,0-1.88,1.88l5.58,5.58V20.9H11L7.5,17.37a3.94,3.94,0,1,0-1.89,1.88l3,3L7.38,23.44a3.94,3.94,0,1,0,1.88,1.88L11,23.55h4.65v7.8h-3.9a1.33,1.33,0,0,0,0,2.65H22.22a1.33,1.33,0,1,0,0-2.65H18.33v-7.8H23l1.76,1.77a3.94,3.94,0,1,0,1.88-1.88l-1.21-1.21ZM2.66,15.68A1.28,1.28,0,1,1,3.94,17,1.28,1.28,0,0,1,2.66,15.68Zm3,12.6A1.28,1.28,0,1,1,7,27,1.28,1.28,0,0,1,5.7,28.28Zm19.9-22a1.29,1.29,0,1,1-1.29,1.29A1.29,1.29,0,0,1,25.6,6.29ZM17,2.66a1.28,1.28,0,1,1-1.28,1.28A1.28,1.28,0,0,1,17,2.66ZM7.12,7.58A1.29,1.29,0,1,1,8.4,8.86,1.29,1.29,0,0,1,7.12,7.58Zm22.94,6.81a1.29,1.29,0,1,1-1.28,1.29A1.28,1.28,0,0,1,30.06,14.39ZM29.59,27a1.29,1.29,0,1,1-1.29-1.28A1.28,1.28,0,0,1,29.59,27Z"/>
</svg>
