<svg id="Capa_1" data-name="Capa 1" xmlns="http://www.w3.org/2000/svg" width="32" height="28.66" viewBox="0 0 32 28.66">
  <defs>
    <style>
      .cls-1 {
        fill: #fff;
      }
    </style>
  </defs>
  <title>Cancerogenesis</title>
  <path class="cls-1" d="M30.31,17.05a6.4,6.4,0,0,0-1.62-1.28A6.47,6.47,0,0,0,21.34,5.34l0-.1-.08.1A6.46,6.46,0,0,0,8.46,6.46c0,.15,0,.29,0,.43H8.29a6.46,6.46,0,0,0-5.45,10A6.46,6.46,0,1,0,12.9,22.76a6.5,6.5,0,0,0,6.3-.07,6.46,6.46,0,1,0,11.11-5.64Zm-2-5.88A4.16,4.16,0,0,1,25.86,15h-.32a6.3,6.3,0,0,0-2,.33,4.07,4.07,0,0,1-1.65-.64l-.14-.1a4.26,4.26,0,0,1-1.53-2.11v-.05a4.06,4.06,0,0,1-.18-1.2,3.86,3.86,0,0,1,.13-1v-.07A4.18,4.18,0,0,1,21,8.52h0a4.15,4.15,0,0,1,7.34,2.66ZM14.92,2.32A4.18,4.18,0,0,1,19,7.26l0,0,0,0-.07.09,0,0-.08.13h0l-.09.14,0,0-.06.1,0,.05-.06.1,0,0a2.1,2.1,0,0,0-.15.3l0,0-.06.11,0,.05a.61.61,0,0,1,0,.12v0L18,9.05v0a.56.56,0,0,0,0,.12l0,0V9.3a4.16,4.16,0,0,1-3,1.32,4,4,0,0,1-1.29-.21h0a4.15,4.15,0,0,1-2.86-3.95A4.15,4.15,0,0,1,14.92,2.32ZM8.29,9.21a3.59,3.59,0,0,1,.81.08,6.51,6.51,0,0,0,1.33,1.83,6.84,6.84,0,0,0,1.38,1,6.48,6.48,0,0,0-2.17,3.72v0a.59.59,0,0,1,0,.14v0a2.17,2.17,0,0,0,0,.25v.07a.41.41,0,0,1,0,.11v0a6.48,6.48,0,0,0-2.15-.71h0l-.13,0h0l-.24,0h-.9A6.38,6.38,0,0,0,5,15.89a4,4,0,0,1-.87-2.53A4.15,4.15,0,0,1,8.29,9.21ZM6.46,26.34a4.15,4.15,0,0,1-1.5-8l.08,0A4.26,4.26,0,0,1,6.47,18a4.15,4.15,0,0,1,0,8.3ZM16,21.23a4.15,4.15,0,0,1-4.08-3.4h0a3.67,3.67,0,0,1-.07-.75,4.14,4.14,0,0,1,6.29-3.55A6.59,6.59,0,0,0,20,16.15a4.22,4.22,0,0,1,.11.93A4.33,4.33,0,0,1,20,18a6.1,6.1,0,0,0-.67,1.47A4.16,4.16,0,0,1,16,21.23Zm9.55,4.33a4.15,4.15,0,0,1-4.15-4.15,3.77,3.77,0,0,1,.11-.94A6.9,6.9,0,0,0,22.16,19a4.18,4.18,0,0,1,1.89-1.46,4.23,4.23,0,0,1,1.49-.28l.39,0h0a4.15,4.15,0,0,1-.39,8.28Z"/>
</svg>
