<svg id="Layer_1" data-name="Layer 1" xmlns="http://www.w3.org/2000/svg" width="33" height="34.02" viewBox="0 0 33 34.02">
  <defs>
    <style>
      .cls-1 {
        fill: #fff;
      }
    </style>
  </defs>
  <title>Cell nutrition</title>
  <path class="cls-1" d="M25.85,34A7.15,7.15,0,1,1,33,26.87,7.16,7.16,0,0,1,25.85,34Zm0-11.49a4.34,4.34,0,1,0,4.34,4.34A4.34,4.34,0,0,0,25.85,22.53Z"/>
  <path class="cls-1" d="M15.61,32.81h-.07a16.41,16.41,0,1,1,17.3-16.39q0,.41,0,.81a1.4,1.4,0,0,1-2.1,1.14,9.79,9.79,0,0,0-14.65,8.5,9.61,9.61,0,0,0,.84,4,1.41,1.41,0,0,1-1.29,2Zm.81-30a13.61,13.61,0,0,0-2.85,26.91,12.34,12.34,0,0,1-.33-2.85A12.61,12.61,0,0,1,29.94,15,13.64,13.64,0,0,0,16.42,2.81Z"/>
  <path class="cls-1" d="M7.19,17.92a2.21,2.21,0,1,1,2.2-2.21A2.21,2.21,0,0,1,7.19,17.92Zm0-2.82a.61.61,0,0,0-.61.61.61.61,0,0,0,.61.61.61.61,0,0,0,.61-.61A.62.62,0,0,0,7.19,15.1Z"/>
  <path class="cls-1" d="M15.23,13.05a1.71,1.71,0,1,1,1.71-1.71A1.71,1.71,0,0,1,15.23,13.05Zm0-2.81a1.11,1.11,0,1,0,1.1,1.1A1.11,1.11,0,0,0,15.23,10.24Z"/>
</svg>
