<svg id="Capa_1" data-name="Capa 1" xmlns="http://www.w3.org/2000/svg" width="34" height="33.87" viewBox="0 0 34 33.87">
  <defs>
    <style>
      .cls-1 {
        fill: #fff;
      }
    </style>
  </defs>
  <title>Drainage</title>
  <path class="cls-1" d="M23.49,25.59a1.81,1.81,0,1,1,1.81-1.8A1.82,1.82,0,0,1,23.49,25.59Z"/>
  <path class="cls-1" d="M26.51,33.87a1.8,1.8,0,1,1,1.81-1.8A1.81,1.81,0,0,1,26.51,33.87Z"/>
  <path class="cls-1" d="M32.2,31.73a1.8,1.8,0,1,1,1.8-1.8A1.81,1.81,0,0,1,32.2,31.73Z"/>
  <circle class="cls-1" cx="7.47" cy="18.16" r="1.8"/>
  <path class="cls-1" d="M16.19,15.29a4.83,4.83,0,0,1-2.07-.48L14,14.75l-.13.06a4.83,4.83,0,0,1-2.07.48,4.64,4.64,0,0,1-3.34-1.38,4.69,4.69,0,0,1-1.38-3.34,4.73,4.73,0,0,1,4.72-4.72,4.83,4.83,0,0,1,2.07.48L14,6.4l.13-.07a4.83,4.83,0,0,1,2.07-.48,4.61,4.61,0,0,1,3.34,1.39,4.71,4.71,0,0,1-3.34,8ZM14,12a1.3,1.3,0,0,1,.82.29,2.27,2.27,0,0,0,1.38.5,2.15,2.15,0,0,0,1.53-.63A2.2,2.2,0,0,0,17.7,9a2.13,2.13,0,0,0-1.53-.63,2.09,2.09,0,0,0-1.38.5,1.27,1.27,0,0,1-1.64,0,2.27,2.27,0,0,0-1.38-.5A2.13,2.13,0,0,0,10.24,9a2.2,2.2,0,0,0,0,3.08,2.16,2.16,0,0,0,2.91.13A1.3,1.3,0,0,1,14,12Z"/>
  <circle class="cls-1" cx="11.87" cy="21" r="1.8"/>
  <circle class="cls-1" cx="22.46" cy="17.39" r="1.8"/>
  <path class="cls-1" d="M22.88,30.58A1.46,1.46,0,0,1,21.72,30c-.45-.59-1.76-.52-2.37-.38a14.64,14.64,0,0,1-4.46.7A15,15,0,0,1,0,15.16,15,15,0,0,1,14.89,0,15,15,0,0,1,29.78,15.16a15.11,15.11,0,0,1-.52,4,4.77,4.77,0,0,0,0,2.09,1.47,1.47,0,0,1-1.83,2.29c-1.66-1.26-1.21-4.16-1-5a.29.29,0,0,1,0-.09,12.7,12.7,0,0,0,.43-3.27,12.11,12.11,0,0,0-12-12.22,12.1,12.1,0,0,0-12,12.22,12.1,12.1,0,0,0,12,12.23,11.6,11.6,0,0,0,3.61-.57.23.23,0,0,1,.11,0c.37-.1,3.68-.84,5.43,1.42a1.46,1.46,0,0,1-.26,2.06A1.45,1.45,0,0,1,22.88,30.58Zm6.4-9.32Zm-.08-.07Z"/>
</svg>
