<svg id="Capa_1" data-name="Capa 1" xmlns="http://www.w3.org/2000/svg" width="34" height="34.08" viewBox="0 0 34 34.08">
  <defs>
    <style>
      .cls-1 {
        fill: #fff;
      }
    </style>
  </defs>
  <title>Elimination of alignant</title>
  <g>
    <circle class="cls-1" cx="18.85" cy="6.69" r="1.79"/>
    <circle class="cls-1" cx="7.21" cy="17.46" r="1.79"/>
    <circle class="cls-1" cx="15.81" cy="27.76" r="1.79"/>
    <circle class="cls-1" cx="26.68" cy="12.41" r="1.79"/>
    <path class="cls-1" d="M17.06,2.72a14.31,14.31,0,0,1,6.86,1.75.85.85,0,0,0,.46.12.77.77,0,0,0,.6-.25l.62-.56A1,1,0,0,0,25.91,3a.9.9,0,0,0-.47-.73A17,17,0,0,0,9.62,1.7a1,1,0,0,0-.52.63,1,1,0,0,0,.15.79l.5.66a1,1,0,0,0,.79.42A.84.84,0,0,0,11,4.09,14.11,14.11,0,0,1,17.06,2.72Z"/>
    <path class="cls-1" d="M33.75,18a1.06,1.06,0,0,0-.73-.31h-.79a1,1,0,0,0-1,.87,14.09,14.09,0,0,1-4.11,8.58l-.46.44a.93.93,0,0,0-.31.68,1,1,0,0,0,.29.71l.54.54a.94.94,0,0,0,.69.29,1.08,1.08,0,0,0,.66-.25A17.13,17.13,0,0,0,34,18.81,1.06,1.06,0,0,0,33.75,18Z"/>
    <path class="cls-1" d="M31,14.05a1,1,0,0,0,.95.77v0h.79a1,1,0,0,0,.75-.36,1,1,0,0,0,.21-.81,16.86,16.86,0,0,0-4.2-8.18.94.94,0,0,0-.71-.32,1,1,0,0,0-.66.25L27.58,6a1,1,0,0,0,0,1.38A14.44,14.44,0,0,1,31,14.05Z"/>
    <path class="cls-1" d="M2,12l.82.11h.12a.85.85,0,0,0,.85-.61A14.41,14.41,0,0,1,7.15,6.67a1,1,0,0,0,.12-1.25l-.45-.66A1,1,0,0,0,6,4.34a1.05,1.05,0,0,0-.67.27A17.29,17.29,0,0,0,1.21,10.7a.86.86,0,0,0,.06.85A1,1,0,0,0,2,12Z"/>
    <path class="cls-1" d="M23.92,30.34a1,1,0,0,0-.69-.29.85.85,0,0,0-.39.08,14.15,14.15,0,0,1-5.78,1.23,14.3,14.3,0,0,1-3.51-.44,1.06,1.06,0,0,0-.25,0,1,1,0,0,0-.91.62c-.09.23-.17.48-.27.73a1,1,0,0,0,.66,1.29,17.51,17.51,0,0,0,4.26.54,17,17,0,0,0,7.19-1.6.93.93,0,0,0,.54-.71.94.94,0,0,0-.27-.85Z"/>
    <path class="cls-1" d="M9.35,29.11A14.29,14.29,0,0,1,2.72,17c0-.35,0-.71,0-1.06a1,1,0,0,0-.85-1l-.77-.08H1a1,1,0,0,0-1,.91c0,.42,0,.85,0,1.27A17,17,0,0,0,8,31.5a1,1,0,0,0,.52.15A1,1,0,0,0,9.46,31c.1-.23.18-.5.29-.75A1,1,0,0,0,9.35,29.11Z"/>
    <path class="cls-1" d="M17.05,18.79,21.27,23A1.23,1.23,0,0,0,23,23a1.24,1.24,0,0,0,0-1.76L18.81,17,23,12.81a1.24,1.24,0,0,0-1.76-1.76l-4.22,4.22-4.22-4.22a1.24,1.24,0,1,0-1.76,1.76L15.29,17l-4.22,4.22a1.24,1.24,0,0,0,0,1.76,1.23,1.23,0,0,0,1.76,0Z"/>
  </g>
</svg>
