<svg id="Capa_1" data-name="Capa 1" xmlns="http://www.w3.org/2000/svg" width="34" height="32.46" viewBox="0 0 34 32.46">
  <defs>
    <style>
      .cls-1 {
        fill: #fff;
      }
    </style>
  </defs>
  <title>Spreading of cancer</title>
  <g>
    <path class="cls-1" d="M32.84,15,26,14.45a9.54,9.54,0,0,0-.66-2l5.26-4.47a1.26,1.26,0,0,0-1.48-2L23.19,9.53a9.69,9.69,0,0,0-1.73-1.26l1.63-6.71a1.27,1.27,0,0,0-.84-1.5A1.26,1.26,0,0,0,20.7.78L18.07,7.17a8.21,8.21,0,0,0-2.14,0L13.3.78A1.26,1.26,0,0,0,11.75.06a1.27,1.27,0,0,0-.84,1.5l1.63,6.71a9.69,9.69,0,0,0-1.73,1.26L4.93,5.91a1.26,1.26,0,0,0-1.48,2l5.26,4.47a9.36,9.36,0,0,0-.66,2L1.16,15a1.26,1.26,0,0,0,0,2.52L8.05,18a9.54,9.54,0,0,0,.66,2L3.45,24.52a1.26,1.26,0,0,0,1.48,2l5.88-3.62a10.21,10.21,0,0,0,1.73,1.26L10.91,30.9a1.27,1.27,0,0,0,.84,1.5,1.32,1.32,0,0,0,.39.06,1.27,1.27,0,0,0,1.16-.78l2.63-6.39a9.57,9.57,0,0,0,2.14,0l2.63,6.39a1.27,1.27,0,0,0,1.16.78,1.32,1.32,0,0,0,.39-.06,1.27,1.27,0,0,0,.84-1.5l-1.63-6.71a9.82,9.82,0,0,0,1.73-1.26l5.88,3.62a1.26,1.26,0,0,0,1.48-2l-5.26-4.47A9.54,9.54,0,0,0,26,18l6.89-.52a1.26,1.26,0,0,0,0-2.52ZM17,22.83a6.61,6.61,0,0,1-6.6-6.6,4.35,4.35,0,0,1,0-.51h0A6.6,6.6,0,1,1,17,22.83Z"/>
    <circle class="cls-1" cx="17" cy="13.66" r="1.69"/>
    <circle class="cls-1" cx="14.5" cy="17.63" r="1.35"/>
    <circle class="cls-1" cx="19.51" cy="17.63" r="2.03"/>
  </g>
</svg>
