<?xml version="1.0" encoding="UTF-8"?>
<svg width="40px" height="40px" viewBox="0 0 40 40" version="1.1" xmlns="http://www.w3.org/2000/svg" xmlns:xlink="http://www.w3.org/1999/xlink">
    <!-- Generator: Sketch 57.1 (83088) - https://sketch.com -->
    <title>Group 2</title>
    <desc>Created with Sketch.</desc>
    <g id="APP" stroke="none" stroke-width="1" fill="none" fill-rule="evenodd">
        <g id="Artboard" transform="translate(-2193.000000, -701.000000)">
            <g id="Group-2" transform="translate(2193.000000, 701.000000)">
                <g id="Group">
                    <path d="M19.958,0 C8.935,0 0,8.936 0,19.959 C0,30.981 8.935,39.918 19.958,39.918 C30.981,39.918 39.916,30.981 39.916,19.959 C39.916,8.936 30.981,0 19.958,0" id="Fill-111" fill="#5B9CA8"></path>
                    <path d="M18.205,24.113 C17.139,28.911 16.142,28.373 11.785,29.222 C8.307,29.898 8.06,26.895 9.125,22.098 C10.19,17.3 13.085,13.861 15.593,14.417 C18.1,14.974 19.269,19.315 18.205,24.113" id="Fill-112" fill="#FFFFFF"></path>
                    <path d="M21.712,24.113 C22.777,28.911 23.774,28.373 28.131,29.222 C31.609,29.898 31.856,26.895 30.791,22.098 C29.726,17.3 26.831,13.861 24.324,14.417 C21.816,14.974 20.647,19.315 21.712,24.113" id="Fill-113" fill="#FFFFFF"></path>
                </g>
                <path d="M24.711,15.927 C23.236,14.542 21.42,14.239 20.507,14.179 L20.507,8.659 C20.507,8.355 20.261,8.109 19.958,8.109 C19.655,8.109 19.41,8.355 19.41,8.659 L19.41,14.179 C18.496,14.239 16.68,14.542 15.205,15.927 C13.777,17.268 13.047,19.255 13.0349878,21.835 C13.033,22.138 13.278,22.385 13.581,22.386 C13.582,22.386 13.583,22.386 13.583,22.386 C13.885,22.386 14.13,22.142 14.132,21.84 C14.143,19.579 14.753,17.862 15.947,16.736 C17.135,15.614 18.636,15.344 19.411,15.282 L19.411,15.296 L19.957,15.267 L20.507,15.299 L20.507,15.283 C21.283,15.345 22.782,15.615 23.969,16.736 C25.163,17.862 25.773,19.579 25.785,21.84 C25.786,22.142 26.031,22.386 26.333,22.386 C26.333,22.386 26.335,22.386 26.336,22.386 C26.639,22.385 26.883,22.138 26.8820031,21.835 C26.87,19.255 26.139,17.267 24.711,15.927" id="Fill-114" fill="#FFFFFF"></path>
            </g>
        </g>
    </g>
</svg>